<?xml version="1.0" standalone="no"?>
<!DOCTYPE svg PUBLIC "-//W3C//DTD SVG 1.1//EN" "http://www.w3.org/Graphics/SVG/1.1/DTD/svg11.dtd" >
<svg xmlns="http://www.w3.org/2000/svg">
<metadata>Generated by IcoMoon</metadata>
<defs>
<font id="icomoon" horiz-adv-x="1024">
<font-face units-per-em="1024" ascent="870.4" descent="-153.6" />
<missing-glyph horiz-adv-x="1024" />
<glyph unicode="&#x20;" d="" />
<glyph unicode="&#xe811;" glyph-name="wishlist" horiz-adv-x="1089" d="M793.6 862.976q129.024 0 211.968-81.92t82.944-211.968v-61.44q0-291.84-544.768-668.672-543.744 375.808-543.744 668.672v61.44q0 130.048 82.944 211.968t210.944 81.92q82.944 0 137.216-30.72t112.64-101.376q59.392 69.632 113.664 101.376t136.192 30.72z" />
<glyph unicode="&#xe833;" glyph-name="post" horiz-adv-x="950" d="M804.864 296.704v-273.408q0-15.36-11.264-25.6t-25.6-11.264h-219.136v219.136h-146.432v-219.136h-219.136q-15.36 0-25.6 11.264t-11.264 25.6v273.408q0 1.024 0 2.048t0 2.048l328.704 270.336 328.704-270.336q1.024-1.024 1.024-4.096zM931.84 336.64l-34.816-41.984q-5.12-5.12-12.288-6.144h-2.048q-7.168 0-12.288 3.072l-395.264 329.728-395.264-329.728q-7.168-4.096-13.312-3.072-7.168 1.024-12.288 6.144l-35.84 41.984q-4.096 6.144-3.072 13.312t6.144 12.288l410.624 342.016q18.432 15.36 43.008 15.36t44.032-15.36l139.264-115.712v110.592q0 8.192 5.12 13.312t13.312 5.12h109.568q8.192 0 13.312-5.12t5.12-13.312v-232.448l124.928-104.448q6.144-4.096 6.144-12.288t-4.096-13.312z" />
<glyph unicode="&#xe834;" glyph-name="country" d="M183.296 717.568q0-40.96-36.864-62.464v-723.968q0-7.168-5.12-12.288t-13.312-6.144h-36.864q-7.168 0-12.288 6.144t-6.144 12.288v723.968q-35.84 21.504-35.84 62.464 0 30.72 21.504 52.224t51.2 21.504 52.224-21.504 21.504-52.224zM1024 680.704v-435.2q0-14.336-7.168-22.528t-22.528-15.36q-122.88-66.56-210.944-66.56-34.816 0-70.656 12.288t-61.44 27.648-66.56 27.648-80.896 12.288q-109.568 0-265.216-82.944-10.24-5.12-19.456-5.12-14.336 0-25.6 10.24t-10.24 25.6v424.96q0 17.408 17.408 30.72 12.288 8.192 45.056 24.576 135.168 68.608 240.64 68.608 61.44 0 114.688-16.384t124.928-50.176q21.504-11.264 50.176-11.264 30.72 0 66.56 12.288t63.488 26.624 50.176 26.624 30.72 12.288q15.36 0 25.6-10.24t11.264-26.624z" />
<glyph unicode="&#xe842;" glyph-name="quote-left" horiz-adv-x="950" d="M932.864 9.984h-343.040v343.040q0 142.336 101.376 241.664t241.664 100.352v-113.664q-95.232 0-161.792-67.584t-66.56-160.768h228.352v-343.040zM361.472 9.984h-343.040v343.040q0 142.336 100.352 241.664t242.688 100.352v-113.664q-95.232 0-161.792-67.584t-66.56-160.768h228.352v-343.040z" />
<glyph unicode="&#xe843;" glyph-name="quote-right" horiz-adv-x="950" d="M18.432 695.040h343.040v-342.016q0-143.36-100.352-243.712t-242.688-99.328v113.664q94.208 0 161.792 66.56t66.56 162.816h-228.352v342.016zM589.824 695.040h343.040v-342.016q0-143.36-100.352-243.712t-242.688-99.328v113.664q94.208 0 161.792 66.56t66.56 162.816h-228.352v342.016z" />
<glyph unicode="&#xe846;" glyph-name="euro" horiz-adv-x="585" d="M558.080 117.504l19.456-91.136q2.048-7.168-1.024-13.312t-10.24-8.192h-3.072q-2.048-1.024-6.144-2.048t-9.216-3.072-12.288-3.072-14.336-3.072-16.384-2.048-19.456-3.072-21.504-2.048-21.504 0q-134.144 0-233.472 74.752t-136.192 200.704h-54.272q-7.168 0-13.312 5.12t-5.12 13.312v64.512q0 7.168 5.12 12.288t13.312 6.144h37.888q-1.024 31.744 0 59.392h-37.888q-8.192 0-13.312 5.12t-5.12 13.312v65.536q0 8.192 5.12 13.312t13.312 5.12h56.32q37.888 119.808 138.24 192.512t229.376 73.728q58.368 0 110.592-13.312 6.144-2.048 11.264-9.216 4.096-6.144 2.048-13.312l-24.576-91.136q-2.048-7.168-8.192-11.264t-13.312-1.024l-2.048 1.024q-3.072 0-7.168 1.024l-10.24 2.048t-12.288 2.048-15.36 2.048-16.384 1.024-16.384 1.024q-72.704 0-129.024-36.864t-86.016-100.352h267.264q9.216 0 14.336-7.168 6.144-7.168 4.096-15.36l-13.312-64.512q-3.072-15.36-18.432-15.36h-279.552q-1.024-20.48 0-59.392h263.168q8.192 0 13.312-7.168t4.096-15.36l-14.336-64.512q-1.024-6.144-6.144-10.24t-11.264-4.096h-221.184q27.648-66.56 86.016-106.496t130.048-38.912q10.24 0 20.48 1.024t19.456 2.048 16.384 2.048 14.336 3.072 10.24 3.072l7.168 1.024 3.072 2.048q7.168 2.048 14.336-2.048 7.168-3.072 9.216-11.264z" />
<glyph unicode="&#xe847;" glyph-name="pound" horiz-adv-x="585" d="M582.656 214.784v-209.92q0-8.192-5.12-13.312t-13.312-5.12h-545.792q-8.192 0-13.312 5.12t-5.12 13.312v84.992q0 8.192 5.12 13.312t13.312 5.12h55.296v219.136h-54.272q-8.192 0-13.312 5.12t-5.12 13.312v74.752q0 8.192 5.12 13.312t13.312 5.12h54.272v126.976q0 98.304 70.656 161.792t179.2 63.488q106.496 0 191.488-71.68 5.12-5.12 6.144-12.288t-4.096-12.288l-58.368-72.704q-5.12-6.144-13.312-7.168-7.168-1.024-13.312 4.096-2.048 3.072-14.336 11.264t-39.936 18.432-52.224 10.24q-49.152 0-78.848-27.648t-29.696-69.632v-122.88h174.080q8.192 0 13.312-5.12t5.12-13.312v-74.752q0-7.168-5.12-13.312t-13.312-5.12h-174.080v-216.064h236.544v103.424q0 7.168 5.12 12.288t13.312 5.12h92.16q8.192 0 13.312-5.12t5.12-12.288z" />
<glyph unicode="&#xe848;" glyph-name="rupee" horiz-adv-x="513" d="M513.024 595.712v-58.368q0-8.192-5.12-13.312t-13.312-5.12h-95.232q-13.312-81.92-73.728-134.144t-157.696-62.464q95.232-101.376 262.144-306.176 8.192-9.216 2.048-19.456-5.12-10.24-16.384-10.24h-111.616q-9.216 0-14.336 7.168-175.104 208.896-284.672 325.632-5.12 5.12-5.12 13.312v71.68q0 8.192 5.12 13.312t13.312 5.12h63.488q75.776 0 121.856 24.576t58.368 71.68h-243.712q-8.192 0-13.312 5.12t-5.12 13.312v58.368q0 8.192 5.12 13.312t13.312 5.12h235.52q-31.744 64.512-152.576 64.512h-82.944q-7.168 0-13.312 5.12t-5.12 13.312v75.776q0 8.192 5.12 13.312t13.312 5.12h475.136q8.192 0 13.312-5.12t5.12-13.312v-58.368q0-8.192-5.12-13.312t-13.312-5.12h-133.12q26.624-34.816 36.864-81.92h97.28q8.192 0 13.312-5.12t5.12-13.312z" />
<glyph unicode="&#xe849;" glyph-name="yen" horiz-adv-x="587" d="M345.088-13.568h-98.304q-8.192 0-13.312 5.12t-5.12 13.312v188.416h-164.864q-7.168 0-13.312 5.12t-5.12 13.312v58.368q0 8.192 5.12 13.312t13.312 5.12h164.864v49.152h-164.864q-7.168 0-13.312 5.12t-5.12 12.288v59.392q0 8.192 5.12 13.312t13.312 5.12h121.856l-183.296 330.752q-4.096 9.216 0 18.432 6.144 9.216 16.384 9.216h110.592q11.264 0 16.384-10.24l122.88-243.712q11.264-21.504 32.768-70.656 5.12 13.312 17.408 38.912t15.36 34.816l109.568 239.616q4.096 11.264 16.384 11.264h108.544q10.24 0 15.36-9.216 5.12-8.192 1.024-18.432l-179.2-330.752h122.88q7.168 0 13.312-5.12t5.12-13.312v-59.392q0-7.168-5.12-12.288t-13.312-5.12h-165.888v-49.152h165.888q7.168 0 13.312-5.12t5.12-13.312v-58.368q0-8.192-5.12-13.312t-13.312-5.12h-165.888v-188.416q0-7.168-5.12-13.312t-12.288-5.12z" />
<glyph unicode="&#xe84a;" glyph-name="rouble" horiz-adv-x="731" d="M595.968 541.44q0 57.344-36.864 92.16t-98.304 35.84h-182.272v-256h182.272q61.44 0 98.304 34.816t36.864 93.184zM731.136 541.44q0-110.592-71.68-180.224t-186.368-69.632h-194.56v-67.584h288.768q7.168 0 12.288-5.12t5.12-13.312v-72.704q0-8.192-5.12-13.312t-12.288-5.12h-288.768v-109.568q0-8.192-5.12-13.312t-13.312-5.12h-95.232q-8.192 0-13.312 5.12t-5.12 13.312v109.568h-128q-8.192 0-13.312 5.12t-5.12 13.312v72.704q0 8.192 5.12 13.312t13.312 5.12h128v67.584h-128q-8.192 0-13.312 5.12t-5.12 13.312v84.992q0 7.168 5.12 12.288t13.312 6.144h128v359.424q0 8.192 5.12 13.312t13.312 5.12h308.224q113.664 0 186.368-69.632t71.68-180.224z" />
<glyph unicode="&#xe84b;" glyph-name="try" horiz-adv-x="657" d="M658.432 388.864q0-109.568-54.272-201.728t-146.432-146.432-201.728-54.272h-91.136q-8.192 0-13.312 5.12t-5.12 13.312v349.184l-122.88-37.888q-2.048-1.024-5.12-1.024-6.144 0-11.264 4.096-7.168 5.12-7.168 14.336v73.728q0 12.288 13.312 17.408l133.12 40.96v52.224l-122.88-36.864q-2.048-1.024-5.12-1.024-6.144 0-11.264 3.072-7.168 6.144-7.168 15.36v72.704q0 13.312 13.312 18.432l133.12 39.936v143.36q0 8.192 5.12 13.312t13.312 5.12h91.136q8.192 0 13.312-5.12t5.12-13.312v-103.424l214.016 65.536q9.216 3.072 16.384-2.048t7.168-15.36v-72.704q0-13.312-13.312-18.432l-224.256-68.608v-53.248l214.016 66.56q9.216 3.072 16.384-3.072t7.168-15.36v-72.704q0-13.312-13.312-17.408l-224.256-69.632v-278.528q107.52 8.192 181.248 87.040t74.752 187.392q0 8.192 5.12 13.312t13.312 5.12h91.136q8.192 0 13.312-5.12t5.12-13.312z" />
<glyph unicode="&#xe84c;" glyph-name="won" d="M293.888 180.992l46.080 171.008h-91.136l43.008-171.008q1.024-1.024 1.024-2.048t0-2.048q0 1.024 1.024 2.048t0 2.048zM360.448 424.704l19.456 73.728h-166.912l18.432-73.728h129.024zM470.016 424.704h78.848l-19.456 73.728h-39.936zM726.016 180.992l45.056 171.008h-93.184l47.104-171.008q0 0 0-2.048t1.024-2.048q0 1.024 0 2.048t0 2.048zM789.504 424.704l19.456 73.728h-169.984l19.456-73.728h131.072zM1024 407.296v-36.864q0-8.192-5.12-13.312t-13.312-5.12h-121.856l-93.184-352.256q-4.096-13.312-17.408-13.312h-91.136q-14.336 0-18.432 13.312l-94.208 352.256h-119.808l-95.232-352.256q-4.096-13.312-17.408-13.312h-91.136q-6.144 0-11.264 4.096t-6.144 9.216l-91.136 352.256h-118.784q-8.192 0-13.312 5.12t-5.12 13.312v36.864q0 7.168 5.12 12.288t13.312 5.12h100.352l-19.456 73.728h-80.896q-8.192 0-13.312 5.12t-5.12 13.312v35.84q0 8.192 5.12 13.312t13.312 5.12h62.464l-51.2 196.608q-3.072 9.216 3.072 16.384 5.12 7.168 14.336 7.168h78.848q14.336 0 17.408-14.336l51.2-205.824h205.824l55.296 205.824q4.096 14.336 17.408 14.336h71.68q14.336 0 18.432-14.336l55.296-205.824h208.896l53.248 205.824q3.072 14.336 17.408 14.336h78.848q9.216 0 14.336-7.168 6.144-7.168 3.072-16.384l-52.224-196.608h63.488q8.192 0 13.312-5.12t5.12-13.312v-35.84q0-8.192-5.12-13.312t-13.312-5.12h-82.944l-19.456-73.728h102.4q8.192 0 13.312-5.12t5.12-12.288z" />
<glyph unicode="&#xe84d;" glyph-name="bitcoin" horiz-adv-x="731" d="M666.624 498.432q10.24-104.448-74.752-147.456 66.56-16.384 100.352-59.392t25.6-121.856q-4.096-40.96-18.432-71.68t-36.864-50.176-55.296-33.792-69.632-19.456-82.944-9.216v-145.408h-88.064v143.36q-46.080 0-69.632 1.024v-144.384h-88.064v145.408q-10.24 0-30.72 1.024t-31.744 0h-114.688l18.432 104.448h63.488q27.648 0 32.768 28.672v230.4h9.216q-4.096 0-9.216 0v164.864q-7.168 37.888-51.2 37.888h-63.488v94.208l121.856-1.024q35.84 0 55.296 1.024v144.384h88.064v-141.312q46.080 1.024 69.632 1.024v140.288h88.064v-144.384q45.056-4.096 79.872-13.312t64.512-25.6 47.104-44.032 20.48-65.536zM543.744 187.136q0 20.48-8.192 35.84t-21.504 26.624-32.768 17.408-36.864 11.264-43.008 5.12-38.912 1.024-36.864 0-27.648-1.024v-193.536q5.12 0 21.504 0t27.648 0 29.696 1.024 33.792 2.048 32.768 5.12 31.744 8.192 26.624 11.264 22.528 17.408 14.336 22.528 5.12 29.696zM503.808 458.496q0 19.456-7.168 33.792t-17.408 23.552-27.648 16.384-31.744 9.216-34.816 5.12-32.768 1.024-31.744 0-22.528-1.024v-175.104q3.072 0 20.48 0t26.624 0 27.648 1.024 31.744 3.072 29.696 6.144 27.648 10.24 21.504 15.36 15.36 22.528 5.12 28.672z" />
<glyph unicode="&#xe84e;" glyph-name="ok-1" d="M955.392 540.416q0-22.528-16.384-38.912l-491.52-491.52q-16.384-15.36-38.912-15.36t-38.912 15.36l-284.672 284.672q-15.36 16.384-15.36 38.912t15.36 38.912l77.824 77.824q16.384 16.384 38.912 16.384t38.912-16.384l167.936-168.96 374.784 375.808q16.384 16.384 38.912 16.384t38.912-16.384l77.824-77.824q16.384-15.36 16.384-38.912z" />
<glyph unicode="&#xe870;" glyph-name="tag-line" d="M951.296 357.12l-486.4-486.4c0-1.024-1.024-2.048-2.048-3.072-4.096-4.096-9.216-6.144-15.36-6.144-5.12 0-10.24 2.048-14.336 6.144-1.024 1.024-2.048 2.048-2.048 3.072l-358.4 357.376c-1.024 1.024-2.048 1.024-3.072 2.048-4.096 4.096-6.144 10.24-5.12 15.36-1.024 5.12 1.024 11.264 5.12 15.36 1.024 1.024 2.048 1.024 3.072 2.048l486.4 486.4c4.096 5.12 10.24 8.192 16.384 8.192h1.024c0 0 0 0 0 0h86.016c3.072 31.744 16.384 60.416 35.84 78.848v-1.024c4.096 5.12 10.24 7.168 16.384 7.168 12.288 0 22.528-10.24 22.528-24.576 0-7.168-4.096-14.336-9.216-18.432-10.24-10.24-17.408-24.576-19.456-41.984h101.376c0 0 0 0 0 0h1.024c6.144 0 12.288-3.072 16.384-8.192l123.904-124.928c5.12-4.096 8.192-9.216 8.192-16.384v0c0 0 0 0 0-1.024v-233.472c0 0 0 0 0 0v0c0-7.168-3.072-12.288-8.192-16.384zM731.136 508.672c-4.096-4.096-10.24-7.168-16.384-7.168-12.288 0-22.528 11.264-22.528 24.576 0 8.192 3.072 14.336 9.216 18.432 5.12 5.12 9.216 12.288 13.312 19.456-18.432-5.12-31.744-21.504-31.744-40.96 0-23.552 18.432-43.008 41.984-43.008s43.008 19.456 43.008 43.008c0 10.24-4.096 19.456-9.216 26.624-13.312-33.792-27.648-40.96-27.648-40.96zM917.504 599.808l-114.688 114.688h-90.112c4.096-9.216 9.216-17.408 15.36-23.552v0c1.024 0 2.048-1.024 3.072-2.048v1.024c22.528-21.504 36.864-53.248 36.864-91.136 0-1.024 0-2.048 0-2.048 25.6-15.36 43.008-41.984 43.008-73.728 0-47.104-38.912-86.016-86.016-86.016s-84.992 38.912-84.992 86.016c0 45.056 35.84 82.944 81.92 84.992-2.048 18.432-10.24 34.816-20.48 45.056-1.024 0-2.048 1.024-3.072 2.048v-1.024c-16.384 15.36-27.648 35.84-33.792 60.416h-80.896l-468.992-468.992 332.8-333.824 470.016 470.016v218.112zM305.152 282.368c8.192 8.192 20.48 8.192 28.672 0l150.528-150.528c8.192-8.192 8.192-21.504 0-29.696s-21.504-8.192-29.696 0l-149.504 150.528c-8.192 8.192-8.192 21.504 0 29.696zM390.144 367.36c8.192 8.192 21.504 8.192 29.696 0l150.528-150.528c7.168-8.192 7.168-21.504 0-29.696-8.192-8.192-21.504-8.192-29.696 0l-150.528 150.528c-8.192 8.192-8.192 21.504 0 29.696z" />
<glyph unicode="&#xe871;" glyph-name="bag" horiz-adv-x="791" d="M395.264 864c-121.856 0-220.16-97.28-220.16-218.112v-15.36h-151.552c-1.024 0-1.024 0-2.048 0-12.288-1.024-21.504-11.264-21.504-22.528v-630.784c0-75.776 61.44-137.216 137.216-137.216h516.096c74.752 0 137.216 61.44 137.216 137.216v630.784c0 12.288-11.264 22.528-23.552 22.528h-151.552v15.36c1.024 120.832-97.28 218.112-220.16 218.112zM395.264 816.896c98.304 0 175.104-75.776 175.104-171.008v-15.36h-349.184v15.36c0 95.232 76.8 171.008 174.080 171.008zM47.104 584.448h697.344v-607.232c0-51.2-39.936-91.136-90.112-91.136h-516.096c-51.2 0-90.112 40.96-90.112 91.136l-1.024 607.232zM197.632 526.080c-25.6 0-46.080-20.48-46.080-46.080s20.48-47.104 46.080-47.104 47.104 21.504 47.104 47.104-21.504 46.080-47.104 46.080zM593.92 526.080c-25.6 0-47.104-20.48-47.104-46.080s21.504-47.104 47.104-47.104 46.080 21.504 46.080 47.104-20.48 46.080-46.080 46.080z" />
<glyph unicode="&#xe872;" glyph-name="search-1" horiz-adv-x="1026" d="M1010.688-72.96l-363.52 364.544c45.056 59.392 71.68 134.144 71.68 214.016 0 197.632-160.768 358.4-358.4 358.4s-358.4-160.768-358.4-358.4 160.768-358.4 358.4-358.4c80.896 0 154.624 26.624 214.016 71.68l364.544-363.52c19.456-20.48 52.224-20.48 71.68 0 20.48 19.456 20.48 52.224 0 71.68zM360.448 249.6c-141.312 0-256 114.688-256 256s114.688 256 256 256 256-114.688 256-256-114.688-256-256-256z" />
<glyph unicode="&#xe877;" glyph-name="online-support" d="M532.48 887.552c-260.096 0-360.448-167.936-368.64-327.68v-138.24c-13.312-15.36-19.456-35.84-19.456-63.488 0-46.080 29.696-86.016 73.728-96.256 54.272-138.24 142.336-317.44 293.888-317.44 81.92 0 146.432 53.248 194.56 123.904h-52.224c-46.080-56.32-92.16-81.92-144.384-81.92-98.304 0-182.272 97.28-260.096 304.128l-4.096 11.264-11.264 2.048c-28.672 0-50.176 24.576-50.176 54.272 0 12.288 2.048 21.504 6.144 29.696l67.584-31.744c6.144-2.048 14.336-2.048 20.48 2.048 5.12 4.096 7.168 10.24 7.168 17.408v146.432c14.336 0 52.224 2.048 114.688 16.384 65.536 15.36 139.264 44.032 191.488 93.184 54.272-71.68 125.952-99.328 146.432-105.472v-150.528c0-7.168 2.048-13.312 8.192-17.408 5.12-4.096 13.312-4.096 19.456-2.048l31.744 16.384v-68.608c-2.048 0-6.144 0-9.216 0l-12.288-2.048-4.096-11.264c-20.48-54.272-41.984-100.352-62.464-138.24 24.576 4.096 48.128 13.312 64.512 31.744 12.288 25.6 21.504 54.272 33.792 77.824 4.096 2.048 8.192 4.096 12.288 4.096v-14.336c0-67.584-54.272-121.856-123.904-121.856h-86.016c-8.192 22.528-30.72 39.936-58.368 39.936h-39.936c-33.792 0-61.44-27.648-61.44-61.44 0-31.744 27.648-60.416 61.44-60.416h39.936c27.648 0 50.176 16.384 58.368 39.936h86.016c92.16 0 163.84 74.752 163.84 163.84v20.48c33.792 0 61.44 27.648 61.44 61.44v82.944c0 33.792-27.648 61.44-61.44 61.44v81.92c-8.192 180.224-108.544 282.624-278.528 285.696l-41.984 41.984zM524.288 845.568l41.984-39.936h8.192c203.776 0 241.664-153.6 245.76-245.76v-81.92c-2.048 0-2.048 0-2.048 0-12.288-2.048-20.48-10.24-20.48-21.504v-37.888l-19.456-10.24v130.048c0 9.216-6.144 17.408-14.336 19.456 0 0-101.376 31.744-151.552 114.688-4.096 7.168-12.288 9.216-20.48 9.216-6.144 0-10.24-4.096-13.312-7.168-40.96-48.128-118.784-80.896-186.368-96.256-69.632-16.384-128-18.432-128-18.432-10.24-2.048-18.432-10.24-18.432-21.504v-130.048l-44.032 19.456v132.096c14.336 205.824 172.032 284.672 322.56 285.696zM839.68 435.968h20.48c12.288 0 19.456-8.192 19.456-19.456v-82.944c0-11.264-7.168-19.456-19.456-19.456h-16.384c-2.048 0-4.096 0-4.096 0v90.112c0 2.048 0 4.096 0 6.144zM512 129.792h39.936c12.288 0 22.528-10.24 22.528-21.504 0-10.24-10.24-20.48-22.528-20.48h-39.936c-12.288 0-19.456 10.24-19.456 20.48 0 11.264 7.168 21.504 19.456 21.504z" />
<glyph unicode="&#xe878;" glyph-name="shopping-bag" d="M512 832.256c-88.064 0-159.744-72.704-159.744-159.744v-32.768h-157.696l-2.048-29.696-32.768-575.488-2.048-34.816h708.608l-2.048 34.816-31.744 575.488-2.048 29.696h-158.72v32.768c0 87.040-71.68 159.744-159.744 159.744zM512 767.744c52.224 0 96.256-44.032 96.256-95.232v-32.768h-192.512v32.768c0 51.2 44.032 95.232 96.256 95.232zM253.952 576.256h98.304v-96.256h63.488v96.256h192.512v-96.256h63.488v96.256h98.304l27.648-512h-571.392z" />
<glyph unicode="&#xe879;" glyph-name="us-dollar" d="M512 908.032c-272.384 0-491.52-220.16-491.52-491.52 0-272.384 219.136-492.544 491.52-492.544s492.544 220.16 492.544 492.544c0 271.36-220.16 491.52-492.544 491.52zM512 866.048c249.856 0 450.56-199.68 450.56-449.536 0-250.88-200.704-450.56-450.56-450.56s-449.536 199.68-449.536 450.56c0 249.856 199.68 449.536 449.536 449.536zM493.568 723.712v-57.344c-115.712-6.144-135.168-92.16-135.168-130.048 0-194.56 279.552-92.16 279.552-236.544 0-17.408-4.096-99.328-123.904-99.328-4.096 0-128-2.048-123.904 128h-44.032c4.096-138.24 92.16-156.672 147.456-162.816v-57.344h40.96v57.344c137.216 10.24 145.408 114.688 145.408 134.144 0 184.32-279.552 90.112-279.552 230.4 0 48.128 17.408 101.376 113.664 101.376 98.304 0 109.568-75.776 111.616-111.616h44.032c4.096 58.368-37.888 142.336-135.168 146.432v57.344z" />
<glyph unicode="&#xe87a;" glyph-name="shipped" d="M48.128 782.080c-14.336-6.144-27.648-20.48-33.792-35.84l-4.096-6.144v-274.432c0-261.12 0-275.456 4.096-281.6 6.144-20.48 17.408-31.744 37.888-39.936 6.144-2.048 12.288-2.048 54.272-2.048 33.792 0 45.056 0 45.056-2.048 2.048 0 2.048-4.096 2.048-6.144 2.048-14.336 16.384-39.936 26.624-50.176 8.192-9.216 19.456-21.504 23.552-23.552 2.048 0 4.096-2.048 6.144-2.048 4.096-2.048 6.144-4.096 6.144-4.096 2.048 0 4.096-2.048 6.144-2.048 4.096-2.048 8.192-4.096 10.24-4.096 17.408-8.192 59.392-8.192 79.872 0 2.048 0 6.144 2.048 8.192 4.096 2.048 0 5.12 2.048 5.12 2.048 2.048 0 4.096 2.048 6.144 4.096 2.048 0 6.144 2.048 6.144 2.048 6.144 2.048 18.432 14.336 26.624 23.552 9.216 10.24 21.504 35.84 23.552 50.176 2.048 2.048 2.048 6.144 4.096 6.144 2.048 2.048 300.032 2.048 302.080 0 2.048 0 2.048-4.096 2.048-6.144 4.096-14.336 15.36-39.936 25.6-50.176 8.192-9.216 20.48-21.504 26.624-23.552 0 0 1.024-2.048 5.12-2.048 2.048-2.048 4.096-4.096 6.144-4.096 0 0 4.096-2.048 6.144-2.048 10.24-6.144 14.336-6.144 22.528-8.192 11.264-4.096 39.936-4.096 51.2 0 10.24 2.048 12.288 2.048 22.528 8.192 2.048 0 6.144 2.048 6.144 2.048 2.048 0 4.096 2.048 6.144 4.096 3.072 0 5.12 2.048 7.168 2.048 4.096 2.048 16.384 14.336 24.576 23.552 10.24 10.24 23.552 35.84 25.6 50.176 0 8.192 2.048 8.192 18.432 8.192 15.36 0 27.648 2.048 31.744 6.144 0 2.048 2.048 2.048 4.096 2.048s19.456 19.456 19.456 21.504c0 0 2.048 2.048 2.048 2.048 2.048 2.048 4.096 6.144 4.096 10.24 2.048 6.144 2.048 14.336 2.048 115.712 0 75.776 0 112.64 0 114.688-2.048 4.096-2.048 7.168-4.096 9.216 0 8.192-4.096 16.384-9.216 28.672-8.192 13.312-8.192 13.312-16.384 27.648-10.24 14.336-88.064 119.808-96.256 128s-21.504 18.432-23.552 20.48c-2.048 0-4.096 2.048-6.144 3.072-2.048 2.048-6.144 2.048-6.144 4.096-2.048 0-4.096 0-4.096 2.048-2.048 0-8.192 2.048-12.288 4.096-7.168 2.048-11.264 2.048-101.376 2.048-52.224 0-96.256-2.048-98.304-2.048s-2.048 0-2.048 50.176c-2.048 37.888-2.048 50.176-4.096 52.224 0 4.096-2.048 8.192-4.096 10.24-2.048 7.168-15.36 19.456-21.504 23.552-18.432 8.192 8.192 6.144-283.648 6.144-262.144 0-266.24 0-272.384-2.048zM579.584 742.144c4.096-2.048 12.288-10.24 12.288-14.336 0-2.048 2.048-125.952 0-273.408v-272.384h-99.328c-68.608 0-100.352 0-100.352 2.048-2.048 0-2.048 4.096-4.096 6.144 0 14.336-14.336 37.888-23.552 50.176-8.192 9.216-20.48 19.456-26.624 21.504 0 2.048-4.096 2.048-6.144 4.096s-4.096 4.096-6.144 4.096c0 0-3.072 2.048-5.12 2.048-2.048 2.048-6.144 4.096-8.192 4.096-20.48 8.192-60.416 8.192-79.872 0-2.048 0-6.144-2.048-8.192-4.096-4.096 0-6.144-2.048-8.192-2.048 0 0-2.048-2.048-6.144-4.096-2.048-2.048-4.096-2.048-6.144-4.096-4.096-2.048-15.36-12.288-23.552-21.504-10.24-12.288-24.576-35.84-26.624-50.176 0-2.048 0-6.144-2.048-6.144 0-2.048-9.216-2.048-41.984-2.048-39.936 0-41.984 0-47.104 4.096-4.096 2.048-6.144 4.096-8.192 8.192l-4.096 6.144 2.048 265.216c0 251.904 0 264.192 2.048 268.288 0 4.096 4.096 6.144 6.144 8.192 4.096 2.048 15.36 2.048 260.096 2.048 219.136 0 256 0 259.072-2.048zM734.208 505.6c0-99.328 0-103.424 6.144-109.568 0-2.048 2.048-2.048 2.048-4.096s19.456-21.504 21.504-21.504c0 0 2.048 0 4.096 0 6.144-6.144 8.192-6.144 108.544-8.192h97.28v-161.792l-4.096-6.144c-2.048-2.048-6.144-6.144-7.168-8.192-4.096-4.096-6.144-4.096-16.384-4.096-12.288 0-14.336 0-14.336 8.192-2.048 14.336-15.36 37.888-25.6 50.176-8.192 9.216-20.48 19.456-24.576 21.504-2.048 2.048-4.096 2.048-7.168 4.096-2.048 2.048-4.096 4.096-6.144 4.096 0 0-4.096 2.048-6.144 2.048-2.048 2.048-6.144 4.096-8.192 4.096-19.456 8.192-60.416 8.192-79.872 0-2.048 0-6.144-2.048-8.192-4.096-2.048 0-6.144-2.048-6.144-2.048-2.048 0-4.096-2.048-6.144-4.096-4.096-2.048-5.12-2.048-5.12-4.096-6.144-2.048-18.432-12.288-26.624-21.504-10.24-12.288-23.552-35.84-25.6-50.176 0-2.048 0-6.144-2.048-6.144 0-2.048-12.288-2.048-30.72-2.048h-29.696v404.48l4.096 3.072c2.048 4.096 6.144 8.192 8.192 10.24l6.144 4.096h81.92zM828.416 599.808c9.216-6.144 21.504-13.312 31.744-23.552 6.144-8.192 35.84-48.128 46.080-62.464 2.048-4.096 6.144-6.144 6.144-6.144s2.048-4.096 4.096-5.12c2.048-4.096 3.072-8.192 5.12-10.24s6.144-6.144 8.192-8.192c2.048-4.096 6.144-8.192 6.144-10.24 4.096-4.096 12.288-13.312 16.384-19.456 2.048-4.096 4.096-8.192 10.24-16.384 3.072-8.192 7.168-19.456 7.168-29.696v-6.144h-88.064l-90.112 2.048-5.12 2.048c-2.048 2.048-6.144 6.144-8.192 10.24l-4.096 3.072v92.16c0 50.176 0 90.112 0 90.112 2.048 2.048 12.288 2.048 23.552 2.048 22.528 0 22.528-2.048 30.72-4.096zM289.792 240.384c30.72-8.192 52.224-30.72 60.416-60.416 2.048-8.192 2.048-27.648 0-35.84-8.192-29.696-29.696-52.224-60.416-60.416-8.192-2.048-27.648-2.048-35.84 0-29.696 8.192-52.224 30.72-59.392 60.416-2.048 8.192-2.048 27.648 0 35.84 3.072 18.432 15.36 35.84 27.648 44.032 8.192 6.144 23.552 14.336 27.648 14.336 2.048 0 4.096 2.048 8.192 2.048 4.096 2.048 21.504 2.048 31.744 0zM832.512 240.384c17.408-4.096 35.84-16.384 44.032-28.672 11.264-15.36 17.408-31.744 17.408-49.152 0-32.768-17.408-58.368-46.080-72.704-12.288-6.144-19.456-8.192-33.792-8.192-31.744 0-58.368 18.432-71.68 46.080-6.144 12.288-8.192 20.48-8.192 34.816 0 31.744 17.408 57.344 46.080 71.68 6.144 2.048 10.24 4.096 11.264 4.096 2.048 0 4.096 2.048 8.192 2.048 6.144 2.048 22.528 2.048 32.768 0zM465.92 645.888c-2.048-2.048-8.192-6.144-10.24-10.24-4.096-2.048-9.216-9.216-17.408-17.408-10.24-12.288-14.336-16.384-26.624-29.696-4.096-4.096-9.216-12.288-15.36-18.432-6.144-4.096-12.288-12.288-12.288-14.336-4.096-4.096-8.192-8.192-27.648-27.648-8.192-10.24-16.384-18.432-18.432-20.48-10.24-9.216-14.336-15.36-23.552-27.648-14.336-14.336-18.432-18.432-20.48-18.432 0 0-4.096 2.048-6.144 4.096-4.096 4.096-8.192 8.192-9.216 10.24-2.048 2.048-4.096 4.096-6.144 4.096-2.048 2.048-8.192 8.192-26.624 23.552-2.048 2.048-4.096 4.096-6.144 4.096 0 2.048-5.12 6.144-11.264 12.288-6.144 4.096-12.288 10.24-14.336 10.24-8.192 8.192-23.552 21.504-23.552 21.504-2.048 0-4.096-2.048-14.336-15.36-10.24-10.24-12.288-14.336-12.288-14.336 0-2.048 2.048-4.096 24.576-21.504 7.168-8.192 17.408-18.432 21.504-22.528 2.048 0 8.192-6.144 14.336-10.24 6.144-6.144 12.288-11.264 12.288-11.264s7.168-6.144 17.408-14.336c8.192-8.192 16.384-16.384 18.432-18.432 7.168-7.168 23.552-21.504 25.6-21.504 0 0 2.048 4.096 4.096 6.144 4.096 2.048 6.144 6.144 8.192 8.192s10.24 9.216 17.408 17.408c16.384 18.432 22.528 26.624 26.624 29.696 2.048 2.048 10.24 10.24 17.408 18.432 16.384 18.432 22.528 25.6 28.672 29.696 2.048 2.048 7.168 10.24 15.36 20.48 14.336 14.336 24.576 25.6 32.768 31.744 2.048 2.048 7.168 10.24 13.312 18.432 6.144 6.144 16.384 15.36 18.432 19.456 15.36 14.336 19.456 22.528 19.456 24.576 0 0 0 2.048 0 2.048s-7.168 5.12-13.312 11.264c-6.144 6.144-14.336 12.288-14.336 12.288-2.048 0-4.096-2.048-6.144-6.144z" />
<glyph unicode="&#xe87b;" glyph-name="list" d="M56.32 872.192h911.36v-211.968h-911.36zM56.32 515.84h911.36v-209.92h-911.36zM56.32 171.776h911.36v-211.968h-911.36z" />
<glyph unicode="&#xe87c;" glyph-name="money" d="M512 880.384c64.512 0 123.904-12.288 182.272-35.84 55.296-24.576 105.472-56.32 147.456-98.304 41.984-44.032 74.752-92.16 100.352-150.528 23.552-55.296 35.84-115.712 35.84-179.2 0-64.512-12.288-125.952-35.84-182.272-25.6-56.32-58.368-106.496-100.352-148.48s-92.16-75.776-147.456-99.328c-58.368-24.576-117.76-36.864-182.272-36.864-63.488 0-123.904 12.288-182.272 36.864-55.296 23.552-105.472 57.344-147.456 99.328s-73.728 92.16-100.352 148.48c-23.552 56.32-35.84 117.76-35.84 182.272 0 63.488 12.288 123.904 35.84 179.2 26.624 58.368 58.368 106.496 100.352 150.528 41.984 41.984 92.16 73.728 147.456 98.304 58.368 23.552 118.784 35.84 182.272 35.84zM512 7.936c56.32 0 109.568 10.24 157.696 31.744 50.176 22.528 94.208 50.176 130.048 88.064 37.888 35.84 66.56 79.872 88.064 128 20.48 50.176 31.744 104.448 31.744 160.768 0 55.296-11.264 107.52-31.744 157.696-21.504 50.176-50.176 92.16-88.064 130.048-35.84 35.84-79.872 65.536-130.048 86.016-48.128 21.504-101.376 31.744-157.696 31.744s-109.568-10.24-157.696-31.744c-50.176-20.48-94.208-50.176-130.048-86.016-37.888-37.888-66.56-79.872-88.064-130.048-20.48-50.176-31.744-102.4-31.744-157.696 0-56.32 11.264-110.592 31.744-160.768 21.504-48.128 50.176-92.16 88.064-128 35.84-37.888 79.872-65.536 130.048-88.064 48.128-21.504 101.376-31.744 157.696-31.744zM512 517.888c-12.288 0-21.504-4.096-29.696-14.336-10.24-7.168-14.336-17.408-14.336-29.696 0-6.144 6.144-12.288 16.384-15.36 9.216-4.096 21.504-10.24 37.888-16.384 17.408-6.144 37.888-14.336 59.392-25.6 22.528-12.288 32.768-32.768 32.768-58.368 0-24.576-8.192-44.032-22.528-62.464-13.312-17.408-29.696-29.696-50.176-35.84v-33.792c0-8.192-4.096-14.336-9.216-20.48-6.144-5.12-12.288-7.168-20.48-7.168s-14.336 2.048-19.456 7.168c-6.144 6.144-10.24 12.288-10.24 20.48v33.792c-20.48 6.144-35.84 18.432-50.176 35.84-14.336 18.432-22.528 37.888-22.528 62.464 0 8.192 4.096 14.336 8.192 19.456 6.144 6.144 14.336 8.192 22.528 8.192s13.312-2.048 19.456-8.192c6.144-5.12 8.192-11.264 8.192-19.456 0-12.288 4.096-24.576 14.336-31.744 8.192-8.192 17.408-12.288 29.696-12.288s22.528 4.096 29.696 12.288c10.24 7.168 14.336 19.456 14.336 31.744 0 6.144-6.144 10.24-16.384 16.384-9.216 3.072-21.504 7.168-37.888 13.312-17.408 6.144-37.888 16.384-59.392 28.672-22.528 11.264-32.768 29.696-32.768 57.344 0 22.528 8.192 44.032 22.528 62.464 14.336 15.36 29.696 27.648 50.176 33.792v33.792c0 8.192 4.096 16.384 10.24 22.528 5.12 4.096 11.264 7.168 19.456 7.168s14.336-3.072 20.48-7.168c5.12-6.144 9.216-14.336 9.216-22.528v-33.792c20.48-6.144 36.864-18.432 50.176-33.792 14.336-18.432 22.528-39.936 22.528-62.464 0-8.192-4.096-13.312-8.192-19.456-6.144-6.144-14.336-10.24-22.528-10.24-7.168 0-13.312 4.096-19.456 10.24s-8.192 11.264-8.192 19.456c0 12.288-4.096 22.528-14.336 29.696-7.168 10.24-17.408 14.336-29.696 14.336z" />
<glyph unicode="&#xe87d;" glyph-name="shipping" d="M973.824 460.544c8.192 0 16.384-4.096 20.48-10.24 6.144-6.144 10.24-12.288 10.24-20.48v-174.080c0-23.552-8.192-46.080-26.624-61.44-15.36-18.432-37.888-26.624-61.44-26.624h-48.128c-6.144-23.552-20.48-46.080-39.936-61.44-20.48-16.384-44.032-26.624-72.704-26.624-27.648 0-49.152 10.24-71.68 26.624-20.48 15.36-33.792 37.888-39.936 61.44h-211.968c-6.144-23.552-20.48-46.080-39.936-61.44-20.48-16.384-44.032-26.624-71.68-26.624-28.672 0-52.224 10.24-72.704 26.624-19.456 15.36-33.792 37.888-39.936 61.44h-159.744c-8.192 0-14.336 4.096-20.48 8.192-5.12 6.144-7.168 14.336-7.168 22.528 0 7.168 2.048 13.312 7.168 19.456 6.144 6.144 12.288 8.192 20.48 8.192h159.744c6.144 25.6 20.48 46.080 39.936 62.464 20.48 17.408 44.032 25.6 72.704 25.6 27.648 0 51.2-8.192 71.68-25.6 19.456-16.384 33.792-36.864 39.936-62.464h211.968c6.144 25.6 19.456 46.080 39.936 62.464 22.528 17.408 44.032 25.6 71.68 25.6 28.672 0 52.224-8.192 72.704-25.6 19.456-16.384 33.792-36.864 39.936-62.464h48.128c7.168 0 13.312 4.096 19.456 10.24 6.144 4.096 10.24 11.264 10.24 19.456v144.384h-350.208c-8.192 0-14.336 4.096-19.456 10.24-6.144 6.144-8.192 11.264-8.192 19.456v232.448c0 8.192-4.096 15.36-10.24 21.504s-12.288 8.192-20.48 8.192h-289.792c-8.192 0-15.36 2.048-21.504 8.192s-8.192 14.336-8.192 19.456c0 8.192 2.048 16.384 8.192 22.528s13.312 8.192 21.504 8.192h289.792c24.576 0 44.032-8.192 62.464-26.624 16.384-15.36 25.6-35.84 25.6-61.44v-14.336h130.048c4.096 0 8.192 0 12.288-2.048s8.192-4.096 10.24-8.192l151.552-177.152zM625.664 460.544h228.352l-111.616 129.024h-116.736zM320.512 140.032c15.36 0 29.696 4.096 41.984 16.384 9.216 11.264 15.36 25.6 15.36 41.984 0 15.36-6.144 29.696-15.36 39.936-12.288 11.264-26.624 17.408-41.984 17.408-16.384 0-30.72-6.144-41.984-17.408-10.24-10.24-16.384-24.576-16.384-39.936 0-16.384 6.144-30.72 16.384-41.984 11.264-12.288 25.6-16.384 41.984-16.384zM755.712 140.032c16.384 0 30.72 4.096 41.984 16.384 10.24 11.264 16.384 25.6 16.384 41.984 0 15.36-6.144 29.696-16.384 39.936-11.264 11.264-25.6 17.408-41.984 17.408-15.36 0-29.696-6.144-39.936-17.408-11.264-10.24-17.408-24.576-17.408-39.936 0-16.384 6.144-30.72 17.408-41.984 10.24-12.288 24.576-16.384 39.936-16.384zM203.776 576.256c-8.192 0-15.36 2.048-19.456 8.192-6.144 5.12-10.24 11.264-10.24 19.456s4.096 16.384 10.24 22.528c4.096 4.096 11.264 7.168 19.456 7.168h128c8.192 0 16.384-3.072 22.528-7.168 4.096-6.144 8.192-14.336 8.192-22.528s-4.096-14.336-8.192-19.456c-6.144-6.144-14.336-8.192-22.528-8.192zM146.432 460.544c-8.192 0-16.384 1.024-22.528 7.168-4.096 6.144-8.192 12.288-8.192 20.48s4.096 14.336 8.192 19.456c6.144 6.144 14.336 10.24 22.528 10.24h128c7.168 0 15.36-4.096 19.456-10.24 6.144-5.12 10.24-11.264 10.24-19.456s-4.096-14.336-10.24-20.48c-4.096-6.144-12.288-7.168-19.456-7.168zM260.096 372.48c0-8.192-2.048-14.336-8.192-20.48s-14.336-10.24-21.504-10.24h-128c-8.192 0-14.336 4.096-20.48 10.24s-10.24 12.288-10.24 20.48c0 7.168 4.096 13.312 10.24 19.456s12.288 8.192 20.48 8.192h128c7.168 0 15.36-2.048 21.504-8.192s8.192-12.288 8.192-19.456z" />
<glyph unicode="&#xe87e;" glyph-name="support" d="M969.728 444.16c6.144-6.144 8.192-14.336 8.192-22.528 0-7.168-2.048-13.312-8.192-19.456l-71.68-77.824c-2.048 0-2.048 0-4.096-2.048l-2.048-2.048c-6.144-2.048-12.288-4.096-19.456-4.096-6.144 2.048-12.288 4.096-16.384 8.192l-73.728 77.824c-4.096 6.144-8.192 12.288-8.192 19.456 0 8.192 4.096 16.384 8.192 22.528 6.144 6.144 13.312 8.192 21.504 8.192s14.336-2.048 20.48-8.192l21.504-27.648c0 51.2-10.24 99.328-29.696 143.36-18.432 44.032-46.080 83.968-77.824 117.76-33.792 34.816-74.752 60.416-117.76 80.896-46.080 17.408-94.208 27.648-144.384 27.648-52.224 0-100.352-10.24-144.384-27.648-46.080-20.48-86.016-46.080-117.76-80.896-33.792-33.792-60.416-73.728-79.872-117.76-20.48-46.080-29.696-94.208-29.696-143.36 0-52.224 9.216-100.352 29.696-144.384 19.456-46.080 46.080-86.016 79.872-117.76 31.744-34.816 71.68-60.416 117.76-79.872 44.032-20.48 92.16-30.72 144.384-30.72 31.744 0 63.488 4.096 94.208 12.288 29.696 8.192 59.392 20.48 86.016 33.792 27.648 16.384 51.2 33.792 75.776 56.32 21.504 21.504 41.984 46.080 59.392 73.728 4.096 6.144 10.24 10.24 18.432 12.288s14.336 2.048 22.528-2.048c5.12-6.144 9.216-12.288 11.264-20.48 2.048-5.12 0-13.312-4.096-19.456-19.456-31.744-41.984-60.416-67.584-86.016-27.648-24.576-56.32-46.080-88.064-64.512-29.696-17.408-63.488-29.696-100.352-39.936-33.792-8.192-69.632-13.312-107.52-13.312-60.416 0-115.712 11.264-167.936 33.792-52.224 21.504-96.256 54.272-136.192 92.16-37.888 37.888-69.632 83.968-92.16 135.168-21.504 52.224-33.792 108.544-33.792 168.96 0 57.344 12.288 113.664 33.792 165.888 22.528 51.2 54.272 97.28 92.16 137.216 39.936 38.912 83.968 68.608 136.192 90.112 52.224 24.576 107.52 34.816 167.936 34.816 59.392 0 113.664-10.24 165.888-34.816 52.224-21.504 98.304-51.2 136.192-90.112 39.936-39.936 69.632-86.016 94.208-137.216 21.504-52.224 31.744-108.544 31.744-165.888h2.048l21.504 27.648c6.144 6.144 14.336 8.192 22.528 8.192s13.312-2.048 19.456-8.192zM362.496 433.92c3.072 4.096 5.12 8.192 7.168 10.24s2.048 6.144 4.096 8.192c0 2.048 2.048 4.096 2.048 8.192 0 1.024 0 3.072 0 7.168 0 2.048 0 6.144 0 8.192-2.048 2.048-4.096 4.096-6.144 6.144s-4.096 4.096-7.168 4.096c-2.048 2.048-6.144 2.048-10.24 2.048s-8.192 0-12.288-2.048c-4.096 0-8.192-2.048-12.288-6.144-4.096 0-7.168-4.096-11.264-6.144-4.096-4.096-10.24-8.192-14.336-12.288l-37.888 41.984c6.144 6.144 12.288 12.288 17.408 16.384 6.144 4.096 10.24 6.144 14.336 10.24 6.144 2.048 10.24 4.096 14.336 6.144 6.144 2.048 10.24 4.096 15.36 4.096 4.096 2.048 10.24 4.096 16.384 4.096s12.288 0 18.432 0c7.168 0 15.36 0 21.504-2.048 8.192-2.048 16.384-4.096 22.528-6.144 5.12-2.048 11.264-6.144 15.36-10.24 6.144-4.096 10.24-8.192 12.288-14.336 4.096-6.144 8.192-11.264 8.192-15.36 2.048-6.144 2.048-12.288 2.048-20.48 0-4.096 0-10.24 0-14.336 0-3.072-2.048-7.168-2.048-11.264-2.048-6.144-4.096-10.24-6.144-14.336s-4.096-8.192-6.144-12.288c-2.048-4.096-4.096-5.12-8.192-11.264-4.096-4.096-8.192-8.192-12.288-12.288-3.072-6.144-9.216-12.288-19.456-20.48-8.192-7.168-20.48-17.408-33.792-29.696v-2.048h94.208v-56.32h-180.224v44.032l59.392 62.464c8.192 8.192 16.384 16.384 22.528 21.504 6.144 6.144 10.24 12.288 12.288 14.336zM648.192 291.584h-66.56v48.128h-99.328v50.176l103.424 150.528h62.464v-150.528h27.648v-50.176h-27.648zM541.696 389.888h39.936v29.696c0 2.048 0 6.144 0 10.24 0 2.048 0 8.192 0 12.288s2.048 8.192 2.048 10.24c0 2.048 0 4.096 0 4.096h-2.048c-2.048-4.096-3.072-8.192-5.12-12.288s-6.144-8.192-8.192-12.288z" />
<glyph unicode="&#xe87f;" glyph-name="bag-2" d="M845.824 635.648l58.368-581.632c0-23.552-8.192-44.032-24.576-62.464-17.408-15.36-37.888-25.6-61.44-25.6h-612.352c-23.552 0-44.032 10.24-61.44 25.6-16.384 18.432-24.576 38.912-24.576 62.464l58.368 581.632c0 24.576 8.192 44.032 23.552 62.464 18.432 16.384 37.888 25.6 62.464 25.6h88.064v14.336c0 44.032 15.36 81.92 46.080 111.616 31.744 32.768 69.632 48.128 113.664 48.128s81.92-15.36 113.664-48.128c30.72-29.696 46.080-67.584 46.080-111.616v-14.336h88.064c24.576 0 44.032-9.216 62.464-25.6 15.36-18.432 23.552-37.888 23.552-62.464zM396.288 738.048v-14.336h231.424v14.336c0 31.744-11.264 60.416-33.792 81.92-21.504 22.528-50.176 33.792-81.92 33.792s-60.416-11.264-81.92-33.792c-23.552-21.504-33.792-50.176-33.792-81.92zM818.176 26.368c8.192 0 14.336 2.048 19.456 8.192 6.144 5.12 8.192 11.264 8.192 19.456l-57.344 581.632c0 8.192-2.048 14.336-8.192 20.48s-12.288 10.24-20.48 10.24h-88.064v-46.080c8.192-4.096 16.384-10.24 20.48-18.432 6.144-8.192 10.24-17.408 10.24-27.648 0-14.336-6.144-26.624-16.384-35.84-10.24-10.24-22.528-14.336-35.84-14.336-14.336 0-26.624 4.096-35.84 14.336-10.24 9.216-14.336 21.504-14.336 35.84 0 10.24 2.048 19.456 8.192 27.648 4.096 8.192 12.288 14.336 19.456 18.432v46.080h-231.424v-46.080c8.192-4.096 15.36-10.24 19.456-18.432 6.144-8.192 8.192-17.408 8.192-27.648 0-14.336-4.096-26.624-14.336-35.84-9.216-10.24-21.504-14.336-35.84-14.336-13.312 0-25.6 4.096-35.84 14.336-10.24 9.216-15.36 21.504-15.36 35.84 0 10.24 3.072 19.456 9.216 27.648 4.096 8.192 12.288 14.336 20.48 18.432v46.080h-88.064c-8.192 0-14.336-4.096-20.48-10.24s-7.168-12.288-7.168-20.48l-58.368-581.632c0-8.192 2.048-14.336 8.192-19.456 6.144-6.144 11.264-8.192 19.456-8.192z" />
<glyph unicode="&#xe880;" glyph-name="grid" d="M56.32 872.192h211.968v-211.968h-211.968zM56.32 521.984h211.968v-211.968h-211.968zM56.32 171.776h211.968v-211.968h-211.968zM406.528 872.192h211.968v-211.968h-211.968zM406.528 521.984h211.968v-211.968h-211.968zM406.528 171.776h211.968v-211.968h-211.968zM755.712 872.192h211.968v-211.968h-211.968zM755.712 521.984h211.968v-211.968h-211.968zM755.712 171.776h211.968v-211.968h-211.968z" />
<glyph unicode="&#xe881;" glyph-name="bag-3" d="M864.256 705.28h-191.488v61.44c0 53.248-43.008 96.256-96.256 96.256h-126.976c-53.248 0-96.256-43.008-96.256-96.256v-61.44h-193.536c-34.816 0-63.488-28.672-63.488-63.488v-736.256c0-35.84 28.672-64.512 63.488-64.512h704.512c34.816 0 63.488 28.672 63.488 64.512v736.256c0 34.816-28.672 63.488-63.488 63.488v0zM416.768 766.72c0 17.408 14.336 31.744 32.768 31.744h126.976c18.432 0 32.768-14.336 32.768-31.744v-61.44h-192.512v61.44zM864.256-94.464h-704.512v736.256h193.536v-66.56s-1.024-31.744 31.744-31.744c35.84 0 31.744 31.744 31.744 31.744v66.56h192.512v-66.56s-2.048-31.744 31.744-31.744c31.744 0 31.744 31.744 31.744 31.744v66.56h191.488v-736.256z" />
<glyph unicode="&#xe882;" glyph-name="direction" d="M966.656 566.016l-179.2 191.488c-6.144 7.168-14.336 10.24-22.528 10.24h-267.264l-1.024 66.56c0 16.384-14.336 29.696-32.768 29.696s-29.696-13.312-29.696-29.696l-1.024-66.56h-352.256c-18.432 0-32.768-14.336-32.768-31.744v-384c0-17.408 14.336-31.744 32.768-31.744h352.256v-450.56c0-16.384 14.336-29.696 31.744-29.696s31.744 13.312 31.744 29.696v450.56h268.288c8.192 0 16.384 3.072 22.528 10.24l179.2 191.488c11.264 12.288 11.264 31.744 0 44.032zM750.592 383.744h-637.952v320.512h637.952l149.504-159.744z" />
<glyph unicode="&#xe883;" glyph-name="home" d="M1016.832 350.976l-480.256 502.784c-6.144 6.144-14.336 10.24-23.552 10.24-8.192 0-16.384-4.096-22.528-10.24l-483.328-502.784c-12.288-13.312-11.264-32.768 1.024-45.056 13.312-12.288 32.768-12.288 45.056 0l43.008 45.056v-478.208c0-18.432 14.336-32.768 32.768-32.768h223.232c17.408 0 31.744 14.336 31.744 31.744l1.024 320.512h254.976v-319.488c0-18.432 14.336-32.768 31.744-32.768h224.256c17.408 0 31.744 14.336 31.744 32.768v478.208l43.008-45.056c6.144-6.144 14.336-9.216 22.528-9.216s16.384 3.072 22.528 9.216c12.288 11.264 13.312 31.744 1.024 45.056zM863.232 409.344v-504.832h-158.72v319.488c0 17.408-14.336 31.744-32.768 31.744h-318.464c-17.408 0-31.744-14.336-31.744-31.744l-1.024-319.488h-159.744v504.832c0 2.048-1.024 5.12-1.024 7.168l353.28 368.64 351.232-367.616c0-3.072-1.024-5.12-1.024-8.192z" />
<glyph unicode="&#xe884;" glyph-name="magnifier" d="M1014.784-104.704l-311.296 312.32c58.368 69.632 93.184 158.72 93.184 256 0 221.184-179.2 400.384-400.384 400.384s-399.36-179.2-399.36-400.384 179.2-399.36 399.36-399.36c100.352 0 192.512 36.864 262.144 98.304l311.296-313.344c12.288-12.288 32.768-12.288 45.056 0 12.288 13.312 12.288 32.768 0 46.080zM396.288 127.744c-185.344 0-335.872 150.528-335.872 335.872s150.528 336.896 335.872 336.896c186.368 0 336.896-150.528 336.896-336.896s-150.528-335.872-336.896-335.872z" />
<glyph unicode="&#xe885;" glyph-name="magnifier-add" d="M1014.784-104.704l-283.648 284.672c61.44 72.704 97.28 165.888 97.28 267.264 0 230.4-185.344 416.768-415.744 416.768s-415.744-186.368-415.744-416.768 186.368-416.768 415.744-416.768c105.472 0 200.704 39.936 274.432 103.424l282.624-284.672c12.288-12.288 32.768-12.288 45.056 0 12.288 13.312 12.288 32.768 0 46.080zM412.672 96c-193.536 0-352.256 158.72-352.256 352.256s158.72 352.256 352.256 352.256c193.536 0 352.256-158.72 352.256-352.256s-158.72-352.256-352.256-352.256zM572.416 480h-128v128c0 17.408-14.336 31.744-31.744 31.744s-31.744-14.336-31.744-31.744v-128h-128c-18.432 0-32.768-14.336-32.768-31.744s14.336-31.744 32.768-31.744h128v-128c0-18.432 14.336-32.768 31.744-32.768s31.744 14.336 31.744 32.768v128h128c17.408 0 31.744 14.336 31.744 31.744s-14.336 31.744-31.744 31.744z" />
<glyph unicode="&#xe886;" glyph-name="magnifier-remove" d="M1014.784-104.704l-283.648 284.672c61.44 72.704 97.28 165.888 97.28 267.264 0 230.4-185.344 416.768-415.744 416.768s-415.744-186.368-415.744-416.768 186.368-416.768 415.744-416.768c105.472 0 200.704 39.936 274.432 103.424l282.624-284.672c12.288-12.288 32.768-12.288 45.056 0 12.288 13.312 12.288 32.768 0 46.080zM412.672 96c-193.536 0-352.256 158.72-352.256 352.256s158.72 352.256 352.256 352.256c193.536 0 352.256-158.72 352.256-352.256s-158.72-352.256-352.256-352.256zM572.416 480h-319.488c-18.432 0-32.768-14.336-32.768-31.744s14.336-31.744 32.768-31.744h319.488c17.408 0 31.744 14.336 31.744 31.744s-14.336 31.744-31.744 31.744z" />
<glyph unicode="&#xe887;" glyph-name="phone-1" d="M262.144 827.136c37.888-51.2 81.92-118.784 134.144-199.68 12.288-21.504 10.24-48.128-6.144-79.872-6.144-12.288-22.528-41.984-48.128-89.088 27.648-39.936 71.68-89.088 129.024-146.432s107.52-101.376 145.408-130.048c47.104 26.624 76.8 44.032 89.088 50.176 17.408 9.216 33.792 13.312 49.152 13.312 11.264 0 21.504-2.048 30.72-7.168 59.392-36.864 125.952-80.896 201.728-134.144 13.312-10.24 21.504-24.576 23.552-41.984 2.048-18.432-3.072-37.888-16.384-58.368-6.144-9.216-16.384-22.528-30.72-39.936s-35.84-39.936-64.512-65.536-51.2-39.936-69.632-39.936h-2.048c-136.192 5.12-305.152 107.52-503.808 307.2-199.68 199.68-302.080 367.616-307.2 504.832 0 17.408 13.312 40.96 39.936 70.656 25.6 28.672 48.128 50.176 64.512 62.464 16.384 13.312 30.72 23.552 41.984 31.744 14.336 10.24 30.72 15.36 49.152 15.36 21.504 0 38.912-8.192 50.176-23.552zM198.656 786.176c-27.648-19.456-53.248-40.96-76.8-64.512-23.552-24.576-37.888-41.984-41.984-53.248 5.12-120.832 101.376-273.408 287.744-459.776 186.368-185.344 339.968-281.6 459.776-288.768 10.24 4.096 27.648 18.432 51.2 43.008s46.080 50.176 65.536 77.824c3.072 5.12 5.12 9.216 3.072 13.312-76.8 54.272-141.312 97.28-193.536 130.048-5.12 0-11.264-2.048-19.456-6.144-11.264-6.144-39.936-22.528-87.040-48.128l-32.768-19.456-32.768 21.504c-43.008 29.696-94.208 75.776-155.648 137.216-60.416 60.416-105.472 112.64-135.168 155.648l-23.552 30.72 19.456 34.816c25.6 46.080 41.984 75.776 48.128 87.040 4.096 8.192 6.144 14.336 6.144 19.456-46.080 73.728-88.064 138.24-126.976 193.536h-2.048c-5.12 0-10.24-1.024-13.312-4.096z" />
<glyph unicode="&#xe888;" glyph-name="clock-1" d="M512 864c-282.624 0-512-229.376-512-512s229.376-512 512-512c282.624 0 512 229.376 512 512s-229.376 512-512 512zM512-97.536c-246.784 0-447.488 202.752-447.488 449.536s200.704 448.512 447.488 448.512 448.512-201.728 448.512-448.512-201.728-449.536-448.512-449.536zM543.744 365.312v307.2c0 17.408-14.336 31.744-31.744 31.744s-31.744-14.336-31.744-31.744v-320.512c0-9.216 4.096-17.408 9.216-22.528 1.024-1.024 1.024-2.048 2.048-2.048l158.72-158.72c12.288-12.288 32.768-12.288 45.056 0s12.288 32.768 0 45.056z" />
<glyph unicode="&#xe889;" glyph-name="heart-1" d="M0 481.024q0 124.928 90.112 215.040 86.016 86.016 208.896 88.064t212.992-79.872q90.112 81.92 212.992 79.872t208.896-88.064q90.112-90.112 90.112-215.040t-90.112-215.040q-4.096-4.096-354.304-350.208-27.648-27.648-67.584-27.648t-67.584 27.648q-2.048 0-354.304 350.208-90.112 90.112-90.112 215.040zM64.512 481.024q0-99.328 71.68-168.96l354.304-350.208q21.504-23.552 44.032 0l353.28 350.208q71.68 69.632 71.68 168.96t-71.68 168.96q-67.584 67.584-163.84 69.632t-167.936-61.44l-44.032-39.936-44.032 39.936q-71.68 63.488-167.936 61.44t-163.84-69.632q-71.68-69.632-71.68-168.96zM159.744 488.192q0 56.32 39.936 96.256t96.256 39.936q16.384 0 16.384-16.384t-16.384-16.384q-41.984 0-72.704-29.696t-30.72-73.728q0-16.384-16.384-16.384t-16.384 16.384z" />
<glyph unicode="&#xe88b;" glyph-name="earphones-alt" d="M1024 291.584c0 20.48-3.072 100.352-6.144 122.88-28.672 261.12-240.64 450.56-502.784 450.56-273.408 0-494.592-210.944-509.952-490.496 0-6.144-2.048-49.152-3.072-74.752v-14.336c-1.024-6.144-2.048-12.288-2.048-18.432v-215.040c0-46.080 37.888-84.992 84.992-84.992h86.016c47.104 0 86.016 38.912 86.016 84.992v215.040c0 47.104-38.912 84.992-86.016 84.992h-86.016c-6.144 0-11.264-1.024-17.408-2.048 1.024 11.264 1.024 19.456 1.024 21.504 13.312 244.736 207.872 429.056 446.464 429.056 229.376 0 413.696-164.864 439.296-393.216 1.024-9.216 3.072-33.792 4.096-57.344-6.144 1.024-13.312 2.048-19.456 2.048h-84.992c-47.104 0-84.992-37.888-84.992-84.992v-214.016c0-31.744 18.432-60.416 45.056-74.752l-205.824-79.872v5.12c0 17.408-14.336 31.744-31.744 31.744h-96.256c-17.408 0-31.744-14.336-31.744-31.744v-31.744c0-18.432 14.336-32.768 31.744-32.768h96.256c0 0 0 0 1.024 0l57.344 1.024 328.704 129.024c5.12 2.048 8.192 4.096 11.264 7.168 28.672 14.336 49.152 43.008 49.152 76.8v214.016c0 5.12-1.024 10.24-2.048 15.36 1.024 3.072 2.048 6.144 2.048 9.216zM84.992 288.512h86.016c12.288 0 21.504-10.24 21.504-21.504v-215.040c0-11.264-9.216-20.48-21.504-20.48h-86.016c-11.264 0-20.48 9.216-20.48 20.48v215.040c0 11.264 9.216 21.504 20.48 21.504zM832.512 267.008c0 11.264 9.216 21.504 21.504 21.504h84.992c11.264 0 20.48-10.24 20.48-21.504v-214.016c0-11.264-9.216-20.48-20.48-20.48h-84.992c-12.288 0-21.504 9.216-21.504 20.48v214.016z" />
<glyph unicode="&#xe88c;" glyph-name="credit-card" d="M927.744 687.872h-831.488c-53.248 0-96.256-43.008-96.256-96.256v-479.232c0-53.248 43.008-96.256 96.256-96.256h831.488c53.248 0 96.256 43.008 96.256 96.256v479.232c0 53.248-43.008 96.256-96.256 96.256zM96.256 624.384h831.488c18.432 0 32.768-14.336 32.768-32.768v-63.488h-897.024v63.488c0 18.432 14.336 32.768 32.768 32.768zM927.744 79.616h-831.488c-18.432 0-32.768 14.336-32.768 32.768v287.744h897.024v-287.744c0-18.432-14.336-32.768-32.768-32.768z" />
<glyph unicode="&#xe88d;" glyph-name="action-undo" d="M990.208-78.080c0 0-1.024 0-1.024 0-16.384 0-26.624 13.312-27.648 28.672-1.024 12.288-33.792 299.008-482.304 299.008v-183.296c0-12.288-7.168-23.552-18.432-28.672-11.264-6.144-24.576-4.096-33.792 4.096l-415.744 343.040c-7.168 6.144-11.264 15.36-11.264 25.6 0 9.216 4.096 18.432 12.288 24.576l414.72 339.968c9.216 8.192 22.528 9.216 33.792 4.096s18.432-16.384 18.432-28.672v-179.2c185.344-6.144 330.752-66.56 423.936-175.104 152.576-178.176 117.76-436.224 116.736-447.488-2.048-15.36-14.336-26.624-29.696-26.624zM447.488 314.112v0c319.488 0 442.368-108.544 512-203.776-10.24 76.8-39.936 168.96-105.472 243.712-86.016 100.352-225.28 153.6-406.528 153.6-18.432 0-32.768 14.336-32.768 31.744v143.36l-331.776-273.408 331.776-275.456v148.48c0 8.192 4.096 16.384 9.216 22.528 6.144 6.144 14.336 9.216 23.552 9.216z" />
<glyph unicode="&#xe88e;" glyph-name="envolope" d="M1024 631.552c0 6.144 0 13.312-3.072 18.432-8.192 35.84-33.792 54.272-76.8 54.272h-832.512c-37.888 0-78.848-14.336-99.328-41.984-1.024-1.024-3.072-2.048-4.096-4.096-7.168-7.168-9.216-17.408-7.168-26.624-1.024-2.048-1.024-5.12-1.024-7.168v-512c0-53.248 59.392-112.64 111.616-112.64h832.512c53.248 0 79.872 59.392 79.872 112.64v512c0 2.048 0 5.12 0 7.168zM111.616 639.744h832.512l-432.128-344.064-431.104 343.040c10.24 2.048 22.528 1.024 30.72 1.024zM944.128 64.256h-832.512c-17.408 0-47.104 29.696-47.104 48.128v457.728l427.008-340.992c5.12-5.12 13.312-8.192 20.48-8.192s15.36 3.072 21.504 8.192l427.008 340.992v-457.728c0-18.432 1.024-48.128-16.384-48.128z" />
<glyph unicode="&#xe88f;" glyph-name="chart" d="M272.384 544.512h-224.256c-17.408 0-31.744-14.336-31.744-32.768v-640c0-17.408 14.336-31.744 31.744-31.744h224.256c17.408 0 31.744 14.336 31.744 31.744v640c0 18.432-14.336 32.768-31.744 32.768zM239.616-96.512h-159.744v576.512h159.744v-576.512zM623.616 354.048h-224.256c-17.408 0-31.744-14.336-31.744-31.744v-450.56c0-17.408 14.336-31.744 31.744-31.744h224.256c17.408 0 31.744 14.336 31.744 31.744v450.56c0 17.408-14.336 31.744-31.744 31.744zM591.872-96.512h-159.744v386.048h159.744v-386.048zM975.872 864h-223.232c-18.432 0-32.768-14.336-32.768-31.744v-960.512c0-17.408 14.336-31.744 32.768-31.744h223.232c17.408 0 31.744 14.336 31.744 31.744v960.512c0 17.408-14.336 31.744-31.744 31.744zM944.128-96.512h-159.744v897.024h159.744v-897.024z" />
<glyph unicode="&#xe900;" glyph-name="blackclay" d="M456.533-106.183c-135.243 16.649-198.1 64.245-184.065 139.374l3.732 19.978-22.426 17.302c-89.711 69.211-134.955 165.846-128.732 274.955 1.344 23.562 5.607 55.321 9.474 70.574 9.333 36.814 43.513 106.843 67.681 138.667 10.693 14.080 19.493 27.040 19.555 28.8s-13.516 3.2-30.174 3.2c-28.381 0-31.068 0.834-42.667 13.251-23.963 25.652-13.884 42.591 46.334 77.871 107.881 63.205 305.593 143.544 353.256 143.544 28.746 0 37.247-35.533 14.657-61.262-17.975-20.472-13.847-28.338 14.872-28.338 32.987 0 90.343-10.981 129.225-24.74 104.663-37.037 181.093-117.093 210.833-220.835 13.981-48.77 13.995-141.638 0.032-193.892-19.561-73.192-68.115-154.772-119.668-201.064l-24.308-21.828 5.9-30.471c8.115-41.912 2.512-62.165-24.412-88.252-22.616-21.913-57.601-37.762-107.343-48.63-31.013-6.776-158.912-12.249-191.755-8.206zM623.951-72.749c54.094 9.645 86.183 22.255 108.804 42.757l20.312 18.41-0.397 28.232c-0.218 15.528-1.347 29.182-2.508 30.343s-19.222-6.477-40.136-16.974c-58.39-29.306-104.15-41.010-171.26-43.806-80.176-3.339-153.004 10.496-211.885 40.252-24.95 12.609-29.578 9.127-26.673-20.067 3.623-36.41 49.401-64.806 127.193-78.899 41.707-7.556 154.769-7.699 196.551-0.25zM616.533 31.995c99.969 26.117 187.017 95.697 233.992 187.036 23.827 46.33 34.745 81.689 40.93 132.558 15.939 131.091-45.045 248.914-157.589 304.467-41.847 20.656-91.302 34.426-141.236 39.324l-28.17 2.764-5.543-13.381c-6.578-15.88-35.95-46.143-62.545-64.441-29.574-20.348-102.396-53.546-139.929-63.792-34.82-9.505-81.108-12.835-100.937-7.26-10.061 2.828-12.843 0.729-28.262-21.333-25.022-35.802-47.454-82.795-57.229-119.892-11.268-42.761-12.126-111.302-1.877-149.912 32.719-123.25 144.633-211.646 299.060-236.217 28.754-4.575 115.706 1.293 149.333 10.079zM617.354 226.991c-2.125 10.628 8.577 159.295 11.691 162.409 0.687 0.687 3.719-32.029 6.738-72.702 5.685-76.587 3.682-97.823-9.465-100.374-4.267-0.827-7.414 2.917-8.964 10.667zM567.34 231.467c-0.145 12.795 48.237 153.269 50.473 146.563 2.601-7.802-21.104-122.073-29.075-140.163-9.224-20.932-21.201-24.515-21.397-6.4zM671.222 235.733c-6.925 16.429-23.629 93.206-28.544 131.2-2.092 16.169 3.447 4.384 22.882-48.683 26.153-71.412 31.387-98.517 19.024-98.517-3.64 0-9.652 7.2-13.361 16zM522.758 245.187c-1.401 2.266 1.269 11.599 5.932 20.74 9.004 17.649 85.711 131.963 85.711 127.732 0-3.095-41.708-92.631-54.766-117.57-14.916-28.485-30.368-41.434-36.877-30.903zM718.593 254.933c-10.65 12.551-31.549 53.683-60.049 118.181-13.044 29.52-11.22 27.436 33.465-38.238 42.178-61.988 51.887-79.491 48.7-87.795-3.564-9.289-9.301-7.252-22.117 7.852zM482.134 283.274c0 4.44 11.173 18.361 24.83 30.933 37.411 34.442 106.226 91.914 98.672 82.406-52.304-65.831-105.372-121.413-115.921-121.413-4.593 0-7.581 3.182-7.581 8.074zM758.629 288.044c-15.289 12.603-93.029 103.199-93.029 108.415 0 3.825 98.035-80.996 112-96.904 22.409-25.526 8.367-34.045-18.971-11.51zM448.001 324.213c0 3.491 7.2 10.797 16 16.236 19.722 12.19 145.64 73.336 139.733 67.855-9.799-9.093-103.74-73.176-119.404-81.452-19.988-10.562-36.33-11.749-36.33-2.638zM791.467 325.052c-18.942 10.126-117.471 79.433-115.594 81.31 2.536 2.536 137.128-65.838 144.901-73.611 3.828-3.828 6.96-8.743 6.96-10.922 0-6.265-22.212-4.291-36.267 3.222zM434.107 367.316c-7.817 7.817-1.507 14.603 19.227 20.679 27.122 7.948 136.007 28.887 138.299 26.595 0.898-0.898-24.811-11.321-57.132-23.161-58.749-21.521-94.419-30.088-100.393-24.114zM757.315 385.639c-102.186 35.659-102.097 36.356 2.011 15.821 70.727-13.951 90.147-21.381 83.594-31.983-5.328-8.62-25.504-4.811-85.605 16.162zM623.104 413.663c-2.828 3.407-3.894 10.127-2.368 14.933 3.488 10.991 21.613 11.762 27.286 1.161 8.781-16.408-12.988-30.469-24.918-16.095zM435.516 415.476c-14.897 4.163-15.731 12.541-1.777 17.846 8.552 3.251 26.457 3.259 61.881 0.032 27.416-2.502 61.837-4.549 76.491-4.549 42.77 0 25.857-5.003-37.594-11.122-64.126-6.183-83.235-6.608-99.001-2.202zM732.828 417.681c-27.558 2.956-51.126 6.395-52.373 7.642-2.361 2.361 103.030 9.642 141.734 9.791 23.851 0.097 36.515-6.917 27.959-15.474-7.199-7.199-60.206-8.085-117.319-1.959zM540.524 443.91c-66.253 12.171-98.219 21.129-105.134 29.46-6.241 7.52-2.429 15.179 7.528 15.123 7.423-0.048 154.306-49.629 158.027-53.35 2.814-2.814 1.884-2.679-60.421 8.767zM668.049 436.822c-3.017 4.882 132.321 94.378 142.72 94.378 4.36 0 9.147-1.973 10.637-4.385 5.616-9.086-25.434-29.679-87.487-58.023-35.277-16.113-62.48-29.85-60.452-30.526s28.447 7.659 58.71 18.522c79.279 28.458 102.896 34.645 108.987 28.554 13.709-13.709-15.902-24.98-109.605-41.716-69.090-12.34-60.647-11.436-63.51-6.804zM563.2 458.112c-78.887 35.477-110.933 54.959-110.933 67.439 0 13.251 25.883 1.763 84.647-37.569 80.218-53.692 80.848-54.407 26.287-29.87zM558.31 489.995c-56.582 46.962-71.91 63.144-71.91 75.914 0 12.944 11.426 9.177 30.858-10.175 19.967-19.884 98.469-109.867 95.85-109.867-0.897 0-25.556 19.858-54.798 44.128zM668.063 454.43c75.451 90.546 111.717 126.145 120.035 117.828 9.291-9.291-37.55-56.675-120.364-121.757-8.077-6.348-8.060-6.138 0.329 3.93zM585.508 498.133c-42.924 59.832-56.324 83.151-56.39 98.133-0.129 29.509 17.835 6.23 59.268-76.8 19.029-38.133 33.914-69.333 33.078-69.333s-17.016 21.6-35.956 48zM606.068 510.834c-26.847 73.138-34.114 103.36-26.647 110.827 11.077 11.077 18.484-7.858 34.736-88.801 8.9-44.326 15.751-81.118 15.224-81.76s-11.018 26.239-23.313 59.733zM634.542 469.333c-7.182 52.149-12.103 124.762-9.592 141.511 3.079 20.531 8.204 25.94 17.37 18.333 7.735-6.42 7.869-70.099 0.285-136.378-4.927-43.059-5.24-43.971-8.064-23.467zM646.166 462.942c1.426 5.862 8.243 40.184 15.148 76.272 11.621 60.727 20.262 85.852 29.528 85.852 13.386 0 7.044-33.072-20.905-109.026-21.015-57.111-29.188-75.368-23.772-53.099zM686.977 520.325c32.593 68.464 40.204 81.568 49.44 85.112 10.982 4.214 11.879-10.38 1.903-30.956-8.74-18.027-75.595-115.814-79.179-115.814-0.834 0 11.692 27.746 27.836 61.658zM363.555 589.318c61.582 19.422 128.839 57.686 156.229 88.881 14.095 16.054 16.582 27.095 9.206 40.877-4.081 7.626-6.248 6.958-35.95-11.074-43.513-26.417-144.868-74.626-197.574-93.974-24.053-8.83-43.733-18.489-43.733-21.465s4.32-8.552 9.6-12.392c12.998-9.452 55.227-5.673 102.222 9.148zM275.976 637.401c42.418 15.684 125.927 52.252 123.917 54.262-0.84 0.84-21.559-7.315-46.043-18.122s-61.796-26.035-82.916-33.839c-21.12-7.804-36.131-14.29-33.358-14.412 2.773-0.129 20.053 5.328 38.4 12.111zM219.873 648.714c77.734 25.375 233.924 96.315 289.994 131.712 23.96 15.126 14.523 13.689-43.453-6.615-87.71-30.718-241.599-102.238-274.413-127.532-13.85-10.676-11.723-10.491 27.873 2.435z" />
<glyph unicode="&#xe901;" glyph-name="handbags" d="M360.533-31.421c-60.288 7.602-107.332 28.611-139.123 62.129-60.587 63.88-121.552 218.257-142.263 360.24-8.164 55.967-8.316 73.795-0.687 80.128 13.345 11.075 63.829 17.562 221.571 28.471 32.715 2.262 37.27 3.525 34.853 9.661-1.529 3.882-3.822 20.499-5.094 36.925-6.974 90.003 54.637 173.541 143.187 194.148 116.788 27.179 230.637-72.734 221.229-194.148-1.272-16.427-3.565-33.043-5.094-36.925-2.417-6.136 2.138-7.399 34.853-9.661 159.33-11.019 208.203-17.376 222.075-28.889 5.183-4.302 5.888-11.576 3.63-37.465-13.142-150.68-78.884-330.58-147.082-402.486-33.005-34.799-78.73-54.478-145.411-62.581-43.038-5.23-254.133-4.908-296.645 0.452zM680.222-4.026c43.234 7.326 81.309 26.091 105.575 52.033 45.997 49.175 93.836 156.258 120.558 269.859 11.497 48.875 21.777 114.357 18.473 117.662-1.142 1.143-23.936-0.785-50.652-4.282s-92.726-8.61-146.688-11.36c-91.781-4.678-99.071-5.652-112.957-15.087-13.425-9.122-15.337-13.016-20.007-40.727-5.492-32.596-19.221-57.207-40.866-73.259-18.107-13.428-56.298-14.347-77.773-1.871-24.27 14.1-41.857 44.505-44.16 76.345-1.754 24.243-2.664 25.992-19.564 37.62-17.593 12.104-18.454 12.231-115.742 17.083-53.91 2.688-119.877 7.752-146.593 11.252s-49.51 5.429-50.652 4.287c-3.305-3.305 6.976-68.786 18.473-117.662 26.545-112.85 74.576-220.701 119.837-269.088 37.256-39.83 79.551-54.218 174.251-59.281 81.85-4.375 224.791-0.927 268.488 6.477zM538.036 310.434c18.546 12.324 33.698 42.099 33.698 66.217 0 33.732-2.2 35.091-56.683 35.017-26.317-0.032-50.73-1.889-54.25-4.118-4.516-2.859-6.358-11.32-6.257-28.735 0.182-31.447 14.722-59.823 36.146-70.542 19.751-9.882 29.923-9.417 47.346 2.161zM357.586 458.667c-7.294 11.733-15.375 21.325-17.957 21.314s-36.376-1.942-75.095-4.29c-87.056-5.281-151.047-12.802-146.423-17.21 5.975-5.695 124.774-15.978 236.914-20.508l15.824-0.639zM629.048 455.906c8.37 10.215 15.219 19.815 15.219 21.333s-59.52 2.761-132.267 2.761c-72.747 0-132.267-1.242-132.267-2.761 0-1.517 6.849-11.118 15.219-21.333l15.219-18.573h203.657zM768 443.805c64.5 3.478 133.837 10.858 137.868 14.674 5.17 4.894-69.372 12.876-180.819 19.362l-45.084 2.624-27.296-43.909 35.265 2.416c19.396 1.329 55.425 3.504 80.065 4.832zM401.067 505.078c0 2.059-2.807 6.074-6.239 8.922-10.44 8.664-24.372 52.013-25.013 77.826-0.442 17.769-1.696 22.408-4.639 17.15-6.377-11.395-8.206-69.559-2.814-89.508 4.718-17.457 5.531-18.133 21.803-18.133 9.296 0 16.902 1.685 16.902 3.744zM595.075 515.841c29.419 31.193 39.83 79.56 26.054 121.036-31.601 95.142-165.638 105.743-209.275 16.552-23.028-47.067-17.101-97.779 15.571-133.223l17.395-18.872h136.572zM661.109 517.334c5.116 18.423 5.248 66.449 0.224 82.133-3.111 9.715-3.454 9.308-3.841-4.559-0.597-21.374-12.059-57.764-24.305-77.162l-10.36-16.412h16.92c15.917 0 17.183 0.948 21.363 16z" />
<glyph unicode="&#xe902;" glyph-name="obsidian" d="M214.965 61.499c-30.223 13.725-41.038 42.028-22.965 60.101 8.107 8.107 14.446 8.549 126.933 8.846l118.4 0.313-36.413 10.001c-47.127 12.944-75.096 25.517-140.073 62.971-47.576 27.423-55.911 30.795-79.897 32.322-24.235 1.543-27.82 0.664-37.731-9.246-19.726-19.726-15.946-37.182 20.886-96.445 5.811-9.35-20.734 10.643-49.542 37.314-48.768 45.15-84.432 106.7-84.553 145.925-0.071 22.97 14.969 57.046 32.384 73.371 15.295 14.337 44.699 27.445 69.873 31.147l19.2 2.824 0.106 18.631c0.248 43.527 55.535 63.741 91.52 33.462l12.944-10.891 18.115 10.758c27.576 16.377 80.387 60.33 141.848 118.056 30.507 28.653 61.645 54.769 69.196 58.036 21.215 9.178 38.457 7.475 50.967-5.036 9.642-9.642 10.751-13.687 9.124-33.298-2.463-29.695-15.585-55.521-44.374-87.334-13.070-14.442-22.93-26.259-21.911-26.259s46.78 20.385 101.691 45.299c123.524 56.045 125.205 56.684 149.735 56.913 28.226 0.264 42.96-12.702 42.618-37.502-0.4-28.989-20.322-54.954-62.416-81.347-11.606-7.277-19.941-13.231-18.523-13.231s31.817 14.318 67.553 31.819c35.735 17.5 75.146 33.931 87.58 36.512 85.871 17.827 125.425-58.504 54.663-105.487-21.197-14.074-87.514-39.643-102.82-39.643-3.798 0-5.869-1.037-4.602-2.304s28.81 1.635 61.207 6.45c32.617 4.847 65.703 7.548 74.141 6.051 34.239-6.073 60.037-34.862 60.037-66.997 0-26.616-28.675-56.912-63.498-67.089-8.489-2.481-53.728-5.681-100.53-7.111-56.052-1.713-81.66-3.871-75.030-6.323 5.536-2.048 42.869-12.449 82.962-23.113s80.64-22.797 90.104-26.961c40.828-17.964 53.064-56.785 26.326-83.524-17.726-17.726-38.224-23.436-84.067-23.418-30.718 0.013-42.794 2.34-78.933 15.215-79.777 28.422-128.987 44.172-147.026 47.057l-17.998 2.878 11.513-22.719c15.397-30.385 13.256-55.961-6.136-73.288l-13.287-11.872-190.866 0.097c-177.212 0.081-192.123 0.664-208.434 8.072zM609.237 68.867c10.636 2.849 22.229 21.429 22.229 35.624 0 13.292-14.448 38.813-30.56 53.982-20.197 19.014-40.173 27.918-108.107 48.186-71.505 21.333-136.949 52.248-167.115 78.942-34.275 30.331-51.928 63.711-71.631 135.448-7.893 28.738-23.364 48.738-40.636 52.532-27.515 6.043-58.621-23.101-47.277-44.296 11.872-22.183 39.047-22.017 46.822 0.287 3.653 10.479 5.913 12.459 9.791 8.581 7.413-7.413-0.742-26.946-14.465-34.649-9.628-5.404-14.53-5.541-32.607-0.908-27.474 7.041-63.775 0.797-90.16-15.511-27.197-16.809-44.572-50.486-41.196-79.847 3.353-29.162 23.435-68.072 50.506-97.86l22.616-24.887 0.469 17.891c0.849 32.39 35.702 55.738 73.079 48.956 18.585-3.372 35.825-11.62 88.47-42.325 54.457-31.762 90.952-46.576 147.2-59.75 68.641-16.077 111.961-27.893 119.467-32.584 4.003-2.503-56.892-2.957-162.621-1.213-175.988 2.903-187.246 2.025-187.246-14.605 0-9.043 14.882-23.957 29.869-29.934 11.612-4.63 366.386-6.537 383.102-2.059zM913.772 113.782c35.369 10.597 48.35 40.217 26.987 61.58-14.817 14.817-27.64 19.532-119.832 44.063-44.364 11.805-102.212 28.703-128.553 37.552l-47.892 16.089 128.959 0.319c143.537 0.356 156.109 2.132 182.247 25.747 19.488 17.606 24.219 33.613 15.809 53.491-15.162 35.842-37.895 39.378-150.164 23.358-107.946-15.403-191.884-23.983-234.637-23.983h-36.606l-27.169-20.824c-34.744-26.63-61.253-36.88-94.162-36.409-31.442 0.45-69.314 16.307-107.111 44.847-37.767 28.518-38.164 28.584-24.86 4.141 29.281-53.798 90.257-91.039 206.349-126.027 36.192-10.908 73.632-24.311 83.2-29.786s26.912-11.298 38.544-12.941c29.188-4.124 83.61-20.301 142.871-42.469 27.451-10.269 54.577-19.548 60.28-20.62 21.271-4 69.671-2.944 85.741 1.87zM885.333 133.051c-31.635 7.148-163.379 48.384-211.2 66.106-63.257 23.442-79.861 32.022-73.765 38.118 2.419 2.419 15.735-0.914 34.385-8.604 38.733-15.972 174.611-60.795 225.933-74.53 43.478-11.635 49.391-14.222 45.798-20.036-2.546-4.12-6.672-4.325-21.151-1.053zM608.22 304.71c-1.765 2.855-2.536 5.732-1.714 6.394s43.734 3.46 95.361 6.219c74.809 3.998 189.572 13.995 217.288 18.929 2.518 0.448 4.578-1.979 4.578-5.394 0-8.244-15.697-11.165-102.582-19.087-110.796-10.102-209.038-13.359-212.931-7.061zM480 315.524c22.92 10.28 50.617 31.789 68.872 53.484l11.329 13.463-25.167 25.473c-62.988 63.753-124.932 67.19-202.969 11.262-14.849-10.642-31.276-23.956-36.505-29.587l-9.507-10.238 28.508-22.6c48.855-38.731 95.164-57.704 129.174-52.924 8.213 1.155 24.533 6.405 36.267 11.667zM381.373 341.208c-16.155 8.144-37.979 22.29-48.497 31.436-22.504 19.567-22.079 20.681 18.9 49.471 46.767 32.856 81.14 39.914 116.414 23.902 22.021-9.996 60.877-45.495 60.877-55.616s-38.856-45.62-60.877-55.616c-27.932-12.679-52.533-10.859-86.816 6.424zM467.535 345.503c11.666 5.813 28.752 18.293 37.97 27.733l16.76 17.164-16.76 17.164c-19.952 20.433-53.888 38.303-72.74 38.303-7.458 0-21.712-2.876-31.676-6.392-18.42-6.499-72.556-42.622-72.556-48.414 0-5.693 40.352-34.113 64.189-45.209 29.311-13.644 47.959-13.731 74.812-0.348zM398.474 360.682c-9.639 4.772-21.974 13.41-27.41 19.197l-9.884 10.521 9.985 10.629c12.876 13.705 42.019 27.771 57.541 27.771 14.607 0 47.236-18.297 53.499-30.001 6.366-11.895-0.684-22.965-22.925-35.999-22.292-13.064-37.615-13.598-60.806-2.118zM587.138 364.55c9.646 2.489 43.246 8.452 74.667 13.253 116.806 17.845 193.059 38.389 230.709 62.156 32.272 20.372 41.014 51.343 20.331 72.026-7.167 7.167-14.217 8.548-43.63 8.548h-35.081l-98.133-47.585c-81.808-39.669-127.502-58.871-172.491-72.485-5.181-1.567-5.119-2.815 0.411-8.345 5.824-5.824 10.237-5.552 42.357 2.616 55.54 14.123 192.127 59.904 260.923 87.455 5.294 2.12 7.467 0.951 7.467-4.018 0-4.29-7.861-10.398-20.267-15.746-37.328-16.095-233.269-79.947-261.333-85.162-15.253-2.835-30.133-7.034-33.067-9.331-7.849-6.148-6.488-12.576 2.133-10.074 4.107 1.192 15.359 4.203 25.004 6.692zM298.846 405.549c17.297 20.841 91.752 61.305 113.255 61.55 5.298 0.065 26.34 16.553 51.992 40.752 60.443 57.019 84.12 106.695 60.878 127.728-16.497 14.93-33.992 6.169-86.54-43.336-61.466-57.906-122.517-108.852-153.274-127.905-22.476-13.923-23.916-15.775-20.475-26.324 2.036-6.241 5.796-19.531 8.356-29.535 3.994-15.606 5.739-17.607 12.293-14.1 4.201 2.248 10.283 7.275 13.516 11.17zM284.055 419.746c-1.273 2.060 5.312 8.793 14.633 14.962 25.573 16.924 101.478 83.109 154.987 135.139 30.783 29.933 49.080 44.838 51.758 42.16 9.827-9.827-193.343-195.915-213.981-195.989-2.795-0.009-6.123 1.667-7.397 3.728zM596.914 433.853c57.124 26.264 122.742 67.221 143.847 89.783 17.333 18.53 19.063 22.262 17.881 38.573-1.237 17.071-2.211 18.281-17.833 22.139-20.943 5.172-30.177 1.811-176.148-64.107l-111.606-50.4 47.549-19.326 25.89 8.722c34.543 11.637 99.862 41.795 147.783 68.232 37.842 20.877 45.944 23.066 41.384 11.184-3.443-8.972-85.137-52.139-144.969-76.601l-54.375-22.231 13.628-14.060c15.602-16.097 13.91-16.302 66.969 8.093z" />
<glyph unicode="&#xe903;" glyph-name="textiles" d="M354.133-81.633c0 0.861-28.903 84.741-64.228 186.399l-64.228 184.832 38.778 217.662c21.328 119.714 39.191 217.928 39.695 218.252 43.827 28.213 119.941 70.229 121.926 67.305 18.716-27.574 40.765-56.803 42.809-56.748 2.011 0.048 37.732 47.492 52.061 69.138 1.4 2.115 31.16-9.778 66.133-26.429l63.587-30.275 74.352-263.319c40.893-144.825 75.064-265.42 75.935-267.988s-26.403-38.088-60.609-78.933c-56.193-67.1-61.963-75.498-59.822-87.064 8.262-44.61 10.429-39.318-32.165-78.516l-38.956-35.85-129.402 128.989-61.737-74.511c-57.868-69.843-64.13-76.965-64.13-72.945zM541.867 172.447c90.347 108.777 163.765 199.5 163.152 201.607s-65.602 91.884-144.419 199.504l-143.305 195.672-46.965-28.11c-25.831-15.461-47.686-30.138-48.568-32.615s-18.071-97.434-38.199-211.015l-36.596-206.509 39.717-114.385c21.844-62.911 40.151-113.022 40.682-111.358 1.188 3.729 26.769 485.365 26.769 504.012 0 14.063 9.869 22.053 17.641 14.281 2.845-2.845-0.817-99.522-10.987-290.069-14.001-262.335-14.72-287.343-8.749-304.566 11.824-34.11 10.51-32.476 18.412-22.895 3.932 4.768 81.070 97.668 171.416 206.445zM638.402-7.579c20.528 18.135 27.175 26.647 25.82 33.067-11.135 52.779-47.835 198.512-49.992 198.512-1.548 0-29.308-31.849-61.689-70.775l-58.874-70.775 57.107-57.225c31.409-31.474 57.754-57.225 58.545-57.225s13.878 10.99 29.082 24.421zM727.467 154.469c28.16 34.25 50.996 63.426 50.748 64.835s-32.889 117.568-72.533 258.13l-72.081 255.568-102.111 50.265-7.559-9.767c-4.157-5.372-15.24-20.6-24.628-33.841l-17.069-24.074 122.854-167.926c67.57-92.359 124.107-170.012 125.637-172.561s-20.175-32.24-48.235-65.978c-30.69-36.901-50.238-63.955-49.059-67.898 1.077-3.605 9.955-38.715 19.728-78.022s18.97-71.363 20.439-71.235c1.469 0.129 25.71 28.254 53.87 62.504z" />
<glyph unicode="&#xf110;" glyph-name="spinner" d="M301.056 67.328q0-29.696-21.504-51.2t-52.224-21.504q-29.696 0-51.2 21.504t-21.504 51.2q0 30.72 21.504 52.224t51.2 21.504 52.224-21.504 21.504-52.224zM584.704-50.432q0-29.696-20.48-51.2t-52.224-21.504-51.2 21.504-21.504 51.2 21.504 52.224 51.2 21.504 52.224-21.504 20.48-52.224zM183.296 352q0-30.72-21.504-51.2t-52.224-21.504-51.2 21.504-21.504 51.2 21.504 52.224 51.2 20.48 52.224-20.48 21.504-52.224zM869.376 67.328q0-29.696-21.504-51.2t-51.2-21.504q-30.72 0-52.224 21.504t-20.48 51.2 20.48 52.224 52.224 21.504 51.2-21.504 21.504-52.224zM318.464 636.672q0-37.888-26.624-64.512t-64.512-26.624-64.512 26.624-26.624 64.512 26.624 64.512 64.512 26.624 64.512-26.624 26.624-64.512zM987.136 352q0-30.72-21.504-51.2t-51.2-21.504-52.224 21.504-21.504 51.2 21.504 52.224 52.224 20.48 51.2-20.48 21.504-52.224zM621.568 754.432q0-46.080-31.744-77.824t-77.824-31.744-77.824 31.744-31.744 77.824 31.744 77.824 77.824 31.744 77.824-31.744 31.744-77.824zM924.672 636.672q0-53.248-37.888-90.112t-90.112-37.888q-53.248 0-90.112 37.888t-37.888 90.112q0 52.224 37.888 90.112t90.112 37.888 90.112-37.888 37.888-90.112z" />
<glyph unicode="&#xf1de;" glyph-name="sliders" horiz-adv-x="878" d="M200.704 59.136v-72.704h-200.704v72.704h200.704zM402.432 132.864q14.336 0 25.6-11.264t11.264-25.6v-146.432q0-14.336-11.264-25.6t-25.6-11.264h-146.432q-14.336 0-25.6 11.264t-11.264 25.6v146.432q0 15.36 11.264 25.6t25.6 11.264h146.432zM493.568 352v-72.704h-493.568v72.704h493.568zM128 644.864v-73.728h-128v73.728h128zM877.568 59.136v-72.704h-420.864v72.704h420.864zM328.704 717.568q15.36 0 26.624-10.24t10.24-26.624v-145.408q0-15.36-10.24-25.6t-26.624-11.264h-145.408q-15.36 0-25.6 11.264t-11.264 25.6v145.408q0 15.36 11.264 26.624t25.6 10.24h145.408zM695.296 424.704q14.336 0 25.6-10.24t10.24-25.6v-146.432q0-15.36-10.24-25.6t-25.6-11.264h-146.432q-15.36 0-25.6 11.264t-11.264 25.6v146.432q0 14.336 11.264 25.6t25.6 10.24h146.432zM877.568 352v-72.704h-128v72.704h128zM877.568 644.864v-73.728h-493.568v73.728h493.568z" />
<glyph unicode="&#xf291;" glyph-name="shopping-basket" horiz-adv-x="1169" d="M1096.704 424.704q30.72 0 52.224-20.48t21.504-52.224-21.504-51.2-52.224-21.504h-8.192l-65.536-378.88q-5.12-26.624-25.6-43.008t-46.080-17.408h-732.16q-25.6 0-46.080 17.408t-25.6 43.008l-65.536 378.88h-9.216q-29.696 0-51.2 21.504t-21.504 51.2 21.504 52.224 51.2 20.48h1024zM277.504-32q14.336 1.024 24.576 13.312t9.216 26.624l-18.432 237.568q-1.024 14.336-13.312 24.576t-26.624 9.216-24.576-13.312-9.216-26.624l18.432-237.568q1.024-14.336 12.288-24.576t24.576-9.216h3.072zM512 4.864v237.568q0 14.336-11.264 25.6t-25.6 11.264-25.6-11.264-10.24-25.6v-237.568q0-15.36 10.24-25.6t25.6-11.264 25.6 11.264 11.264 25.6zM731.136 4.864v237.568q0 14.336-10.24 25.6t-25.6 11.264-25.6-11.264-11.264-25.6v-237.568q0-15.36 11.264-25.6t25.6-11.264 25.6 11.264 10.24 25.6zM932.864 1.792l18.432 237.568q1.024 15.36-9.216 26.624t-24.576 13.312-26.624-9.216-13.312-24.576l-18.432-237.568q-1.024-15.36 9.216-26.624t24.576-13.312h3.072q14.336 0 24.576 9.216t12.288 24.576zM272.384 697.088l-53.248-235.52h-75.776l57.344 251.904q11.264 50.176 51.2 81.92t91.136 31.744h96.256q0 15.36 10.24 25.6t25.6 11.264h220.16q14.336 0 25.6-11.264t10.24-25.6h96.256q51.2 0 91.136-31.744t50.176-81.92l58.368-251.904h-75.776l-53.248 235.52q-6.144 25.6-25.6 40.96t-45.056 16.384h-96.256q0-15.36-10.24-25.6t-25.6-11.264h-220.16q-14.336 0-25.6 11.264t-10.24 25.6h-96.256q-25.6 0-45.056-16.384t-25.6-40.96z" />
<glyph unicode="&#xf800;" glyph-name="up-open" horiz-adv-x="594" d="M577.536 280.32q16.384-16.384 16.384-41.984t-16.384-41.984q-38.912-38.912-79.872 0l-200.704 192.512-200.704-192.512q-40.96-38.912-79.872 0-16.384 16.384-16.384 41.984t16.384 41.984l239.616 229.376q16.384 16.384 40.96 16.384t40.96-16.384z" />
<glyph unicode="&#xf801;" glyph-name="right-open" horiz-adv-x="348" d="M100.352 634.624l231.424-241.664q16.384-16.384 16.384-40.96 0-22.528-16.384-38.912l-231.424-241.664q-16.384-16.384-40.96-16.384t-40.96 16.384q-36.864 36.864 0 81.92l190.464 198.656-190.464 200.704q-36.864 45.056 0 81.92 16.384 16.384 41.984 16.384t39.936-16.384z" />
<glyph unicode="&#xf802;" glyph-name="left-open" horiz-adv-x="349" d="M247.808 634.624q14.336 16.384 39.936 16.384t41.984-16.384q38.912-36.864 0-81.92l-190.464-200.704 190.464-198.656q38.912-45.056 0-81.92-16.384-16.384-40.96-16.384t-40.96 16.384l-231.424 241.664q-16.384 16.384-16.384 38.912 0 24.576 16.384 40.96 210.944 219.136 231.424 241.664z" />
<glyph unicode="&#xf803;" glyph-name="down-open" horiz-adv-x="594" d="M577.536 425.728l-239.616-229.376q-18.432-18.432-40.96-18.432t-40.96 18.432l-239.616 229.376q-16.384 16.384-16.384 41.984t16.384 41.984q38.912 38.912 79.872 0l200.704-192.512 200.704 192.512q40.96 38.912 79.872 0 16.384-16.384 16.384-41.984t-16.384-41.984z" />
<glyph unicode="&#xf804;" glyph-name="up-open-mini" horiz-adv-x="475" d="M63.488 229.12q-26.624-22.528-51.2 0-24.576 24.576 0 51.2l200.704 194.56q26.624 26.624 49.152 0l200.704-194.56q24.576-26.624 0-51.2-24.576-22.528-51.2 0l-174.080 161.792z" />
<glyph unicode="&#xf805;" glyph-name="right-open-mini" horiz-adv-x="271" d="M13.312 177.92l161.792 174.080-161.792 176.128q-26.624 26.624 0 49.152 26.624 26.624 49.152 0l196.608-198.656q24.576-26.624 0-51.2l-196.608-198.656q-22.528-26.624-49.152 0-26.624 22.528 0 49.152z" />
<glyph unicode="&#xf806;" glyph-name="left-open-mini" horiz-adv-x="271" d="M258.048 177.92q26.624-26.624 0-49.152-26.624-26.624-49.152 0l-196.608 198.656q-24.576 24.576 0 51.2l196.608 198.656q22.528 26.624 49.152 0 26.624-22.528 0-49.152l-159.744-176.128z" />
<glyph unicode="&#xf807;" glyph-name="down-open-mini" horiz-adv-x="477" d="M414.72 474.88q22.528 26.624 49.152 0 26.624-22.528 0-49.152l-200.704-196.608q-22.528-22.528-49.152 0l-200.704 196.608q-26.624 26.624 0 49.152 24.576 24.576 51.2 0l174.080-159.744z" />
<glyph unicode="&#xf808;" glyph-name="up-open-big" horiz-adv-x="885" d="M823.296 126.72l-380.928 366.592-378.88-366.592q-26.624-22.528-51.2 0-24.576 24.576 0 51.2l405.504 399.36q26.624 26.624 49.152 0l405.504-399.36q24.576-26.624 0-51.2-26.624-22.528-49.152 0z" />
<glyph unicode="&#xf809;" glyph-name="right-open-big" horiz-adv-x="476" d="M13.312-26.88l366.592 378.88-366.592 380.928q-26.624 26.624 0 49.152 26.624 26.624 49.152 0l401.408-403.456q24.576-26.624 0-51.2l-401.408-403.456q-22.528-26.624-49.152 0-26.624 22.528 0 49.152z" />
<glyph unicode="&#xf80a;" glyph-name="left-open-big" horiz-adv-x="476" d="M462.848-26.88q26.624-26.624 0-49.152-26.624-26.624-49.152 0l-401.408 403.456q-24.576 24.576 0 51.2l401.408 403.456q22.528 26.624 49.152 0 26.624-22.528 0-49.152l-366.592-380.928z" />
<glyph unicode="&#xf80b;" glyph-name="down-open-big" horiz-adv-x="887" d="M64.512 577.28l378.88-364.544 380.928 364.544q22.528 26.624 49.152 0 26.624-22.528 0-49.152l-405.504-401.408q-22.528-22.528-49.152 0l-405.504 401.408q-26.624 26.624 0 49.152 24.576 24.576 51.2 0z" />
<glyph unicode="&#xf80c;" glyph-name="up-open-huge" d="M961.536 103.168l-94.208-94.208q-11.264-10.24-26.624-10.24t-25.6 10.24l-303.104 304.128-303.104-304.128q-11.264-10.24-25.6-10.24t-25.6 10.24l-95.232 94.208q-11.264 11.264-11.264 26.624t11.264 25.6l423.936 423.936q11.264 10.24 25.6 10.24t25.6-10.24l423.936-423.936q11.264-11.264 11.264-25.6t-11.264-26.624z" />
<glyph unicode="&#xf80d;" glyph-name="right-open-huge" horiz-adv-x="731" d="M632.832 363.264l-423.936-424.96q-11.264-10.24-25.6-10.24t-25.6 10.24l-95.232 95.232q-11.264 11.264-11.264 25.6t11.264 25.6l303.104 304.128-303.104 303.104q-11.264 11.264-11.264 25.6t11.264 25.6l95.232 95.232q10.24 11.264 25.6 11.264t25.6-11.264l423.936-423.936q10.24-11.264 10.24-25.6t-10.24-25.6z" />
<glyph unicode="&#xf80e;" glyph-name="left-open-huge" horiz-adv-x="731" d="M669.696 691.968l-304.128-303.104 304.128-304.128q10.24-10.24 10.24-25.6t-10.24-25.6l-95.232-95.232q-11.264-10.24-25.6-10.24t-25.6 10.24l-423.936 424.96q-11.264 10.24-11.264 25.6t11.264 25.6l423.936 423.936q10.24 11.264 25.6 11.264t25.6-11.264l95.232-95.232q10.24-10.24 10.24-25.6t-10.24-25.6z" />
<glyph unicode="&#xf80f;" glyph-name="down-open-huge" d="M961.536 402.176l-423.936-422.912q-10.24-11.264-25.6-11.264t-25.6 11.264l-423.936 422.912q-11.264 11.264-11.264 26.624t11.264 25.6l95.232 94.208q10.24 11.264 25.6 11.264t25.6-11.264l303.104-303.104 303.104 303.104q11.264 11.264 25.6 11.264t26.624-11.264l94.208-94.208q11.264-11.264 11.264-25.6t-11.264-26.624z" />
<glyph unicode="&#xf810;" glyph-name="angle-up" horiz-adv-x="657" d="M614.4 187.136q0-7.168-6.144-12.288l-28.672-28.672q-5.12-6.144-12.288-6.144t-13.312 6.144l-225.28 224.256-224.256-224.256q-5.12-6.144-13.312-6.144t-12.288 6.144l-28.672 28.672q-6.144 5.12-6.144 12.288t6.144 13.312l266.24 266.24q5.12 6.144 12.288 6.144t13.312-6.144l266.24-266.24q6.144-5.12 6.144-13.312z" />
<glyph unicode="&#xf811;" glyph-name="angle-right" horiz-adv-x="366" d="M339.968 315.136q0-7.168-5.12-12.288l-267.264-267.264q-5.12-5.12-12.288-5.12t-13.312 5.12l-28.672 28.672q-6.144 6.144-6.144 13.312t6.144 13.312l224.256 224.256-224.256 225.28q-6.144 5.12-6.144 12.288t6.144 13.312l28.672 28.672q5.12 6.144 13.312 6.144t12.288-6.144l267.264-266.24q5.12-5.12 5.12-13.312z" />
<glyph unicode="&#xf812;" glyph-name="angle-left" horiz-adv-x="366" d="M358.4 552.704q0-7.168-6.144-12.288l-224.256-225.28 224.256-224.256q6.144-6.144 6.144-13.312t-6.144-13.312l-28.672-28.672q-5.12-5.12-12.288-5.12t-13.312 5.12l-266.24 267.264q-6.144 5.12-6.144 12.288t6.144 13.312l266.24 266.24q5.12 6.144 13.312 6.144t12.288-6.144l28.672-28.672q6.144-5.12 6.144-13.312z" />
<glyph unicode="&#xf813;" glyph-name="angle-down" horiz-adv-x="657" d="M614.4 443.136q0-7.168-6.144-12.288l-266.24-267.264q-5.12-5.12-13.312-5.12t-12.288 5.12l-266.24 267.264q-6.144 5.12-6.144 12.288t6.144 13.312l28.672 28.672q5.12 6.144 12.288 6.144t13.312-6.144l224.256-224.256 225.28 224.256q5.12 6.144 13.312 6.144t12.288-6.144l28.672-28.672q6.144-5.12 6.144-13.312z" />
<glyph unicode="&#xf814;" glyph-name="basket" horiz-adv-x="950" d="M365.568-13.568q0-29.696-21.504-51.2t-51.2-22.528-51.2 22.528-22.528 51.2 22.528 51.2 51.2 21.504 51.2-21.504 21.504-51.2zM877.568-13.568q0-29.696-21.504-51.2t-51.2-22.528-51.2 22.528-22.528 51.2 22.528 51.2 51.2 21.504 51.2-21.504 21.504-51.2zM951.296 608v-292.864q0-13.312-10.24-23.552t-22.528-12.288l-596.992-69.632q7.168-34.816 7.168-40.96 0-8.192-13.312-35.84h525.312q15.36 0 26.624-11.264t10.24-25.6-10.24-25.6-26.624-11.264h-584.704q-14.336 0-25.6 11.264t-11.264 25.6q0 6.144 5.12 18.432t9.216 20.48 12.288 22.528 8.192 17.408l-100.352 470.016h-116.736q-15.36 0-25.6 10.24t-11.264 25.6 11.264 26.624 25.6 10.24h146.432q9.216 0 16.384-3.072t10.24-9.216 8.192-14.336 4.096-14.336 3.072-17.408 3.072-14.336h686.080q14.336 0 25.6-11.264t11.264-25.6z" />
<glyph unicode="&#xf815;" glyph-name="mini-cart" d="M230.4 608c0 25.6 19.456 46.080 44.032 46.080 25.6 0 46.080-20.48 46.080-46.080 0-23.552-20.48-44.032-46.080-44.032-24.576 0-44.032 20.48-44.032 44.032zM719.872 608c0 25.6 20.48 46.080 44.032 46.080 24.576 0 44.032-20.48 44.032-46.080 0-23.552-19.456-44.032-44.032-44.032-23.552 0-44.032 20.48-44.032 44.032zM220.16 731.904c-66.56 0-117.76-56.32-117.76-123.904l-68.608-579.584c0-68.608 52.224-124.928 116.736-124.928h723.968c63.488 0 115.712 56.32 115.712 124.928l-68.608 579.584c0 67.584-51.2 123.904-117.76 123.904zM786.432 731.904c-26.624 112.64-138.24 196.608-272.384 196.608s-245.76-83.968-272.384-196.608h81.92c24.576 71.68 100.352 125.952 190.464 125.952s165.888-54.272 190.464-125.952z" />
<glyph unicode="&#xf816;" glyph-name="heart" d="M512-87.296q-14.336 0-25.6 10.24l-356.352 344.064q-5.12 5.12-15.36 15.36t-31.744 37.888-38.912 55.296-30.72 68.608-13.312 78.848q0 125.952 72.704 196.608t200.704 71.68q34.816 0 71.68-12.288t68.608-33.792 55.296-38.912 43.008-38.912q20.48 20.48 43.008 38.912t55.296 38.912 68.608 33.792 71.68 12.288q128 0 200.704-71.68t72.704-196.608q0-125.952-131.072-257.024l-355.328-343.040q-10.24-10.24-25.6-10.24z" />
<glyph unicode="&#xf818;" glyph-name="search" d="M763.904 207.616l260.096-261.12-107.52-107.52-260.096 260.096q-108.544-73.728-237.568-73.728-173.056 0-295.936 122.88t-122.88 295.936 122.88 295.936 295.936 122.88 295.936-122.88 122.88-295.936q0-130.048-73.728-236.544zM697.344 444.16q0 115.712-80.896 197.632t-197.632 81.92-197.632-81.92-81.92-197.632 81.92-196.608 197.632-81.92 197.632 81.92 80.896 196.608z" />
<glyph unicode="&#xf819;" glyph-name="cancel" horiz-adv-x="804" d="M741.376 108.288q0-22.528-15.36-38.912l-77.824-77.824q-16.384-15.36-38.912-15.36t-38.912 15.36l-167.936 168.96-167.936-168.96q-16.384-15.36-38.912-15.36t-38.912 15.36l-77.824 77.824q-16.384 16.384-16.384 38.912t16.384 38.912l167.936 167.936-167.936 167.936q-16.384 16.384-16.384 38.912t16.384 38.912l77.824 77.824q16.384 16.384 38.912 16.384t38.912-16.384l167.936-167.936 167.936 167.936q16.384 16.384 38.912 16.384t38.912-16.384l77.824-77.824q15.36-15.36 15.36-38.912t-15.36-38.912l-167.936-167.936 167.936-167.936q15.36-15.36 15.36-38.912z" />
<glyph unicode="&#xf81a;" glyph-name="cancel-mini" horiz-adv-x="481" d="M462.848 192.256q18.432-18.432 18.432-44.032t-18.432-44.032q-18.432-16.384-44.032-16.384t-44.032 16.384l-135.168 155.648-135.168-155.648q-18.432-16.384-44.032-16.384t-44.032 16.384q-16.384 18.432-16.384 44.032t16.384 44.032l141.312 159.744-141.312 161.792q-16.384 18.432-16.384 44.032t16.384 44.032q18.432 16.384 44.032 16.384t44.032-16.384l135.168-155.648 135.168 155.648q18.432 16.384 44.032 16.384t44.032-16.384q18.432-18.432 18.432-44.032t-18.432-44.032l-141.312-161.792z" />
<glyph unicode="&#xf820;" glyph-name="up-dir" horiz-adv-x="585" d="M584.704 168.704q0-14.336-10.24-25.6t-25.6-10.24h-512q-15.36 0-25.6 10.24t-11.264 25.6 11.264 26.624l256 256q10.24 10.24 25.6 10.24t25.6-10.24l256-256q10.24-11.264 10.24-26.624z" />
<glyph unicode="&#xf821;" glyph-name="right-dir" horiz-adv-x="366" d="M328.704 352q0-14.336-10.24-25.6l-256-256q-11.264-11.264-25.6-11.264t-25.6 11.264-11.264 25.6v512q0 15.36 11.264 25.6t25.6 11.264 25.6-11.264l256-256q10.24-10.24 10.24-25.6z" />
<glyph unicode="&#xf822;" glyph-name="left-dir" horiz-adv-x="366" d="M365.568 608v-512q0-14.336-10.24-25.6t-26.624-11.264-25.6 11.264l-256 256q-10.24 11.264-10.24 25.6t10.24 25.6l256 256q11.264 11.264 25.6 11.264t26.624-11.264 10.24-25.6z" />
<glyph unicode="&#xf823;" glyph-name="down-dir" horiz-adv-x="585" d="M584.704 461.568q0-14.336-10.24-25.6l-256-256q-11.264-11.264-25.6-11.264t-25.6 11.264l-256 256q-11.264 11.264-11.264 25.6t11.264 25.6 25.6 11.264h512q14.336 0 25.6-11.264t10.24-25.6z" />
<glyph unicode="&#xf824;" glyph-name="phone" horiz-adv-x="804" d="M804.864 155.392q0-15.36-6.144-39.936t-12.288-38.912q-11.264-28.672-69.632-61.44-53.248-28.672-105.472-28.672-15.36 0-30.72 2.048t-32.768 7.168-26.624 8.192-31.744 11.264-28.672 10.24q-55.296 20.48-99.328 48.128-72.704 45.056-151.552 122.88t-122.88 151.552q-27.648 44.032-47.104 99.328-2.048 5.12-10.24 28.672t-12.288 31.744-8.192 26.624-7.168 32.768-2.048 29.696q0 53.248 29.696 106.496 31.744 58.368 60.416 69.632 14.336 6.144 38.912 12.288t39.936 6.144q8.192 0 12.288-2.048 10.24-3.072 30.72-43.008 6.144-11.264 16.384-31.744t20.48-35.84 17.408-30.72q2.048-2.048 10.24-14.336t12.288-20.48 4.096-16.384q0-11.264-16.384-27.648t-35.84-31.744-34.816-30.72-16.384-25.6q0-5.12 3.072-13.312t4.096-11.264 8.192-14.336 7.168-10.24q43.008-78.848 99.328-135.168t134.144-99.328q1.024 0 10.24-6.144t14.336-8.192 11.264-5.12 13.312-2.048q10.24 0 25.6 16.384t30.72 34.816 31.744 35.84 28.672 16.384q7.168 0 15.36-4.096t20.48-12.288 14.336-10.24q14.336-8.192 30.72-17.408t36.864-20.48 30.72-17.408q39.936-19.456 43.008-29.696 2.048-4.096 2.048-12.288z" />
<glyph unicode="&#xf825;" glyph-name="pencil" horiz-adv-x="878" d="M207.872-13.568l51.2 52.224-134.144 134.144-52.224-52.224v-61.44h73.728v-72.704h61.44zM505.856 516.864q0 12.288-12.288 12.288-5.12 0-9.216-4.096l-310.272-309.248q-4.096-4.096-4.096-10.24 0-12.288 13.312-12.288 5.12 0 9.216 4.096l310.272 309.248q3.072 4.096 3.072 10.24zM475.136 626.432l237.568-237.568-475.136-476.16h-237.568v238.592zM865.28 571.136q0-29.696-20.48-51.2l-95.232-95.232-237.568 238.592 95.232 94.208q20.48 21.504 51.2 21.504 29.696 0 52.224-21.504l134.144-134.144q20.48-22.528 20.48-52.224z" />
<glyph unicode="&#xf826;" glyph-name="pencil-mini" horiz-adv-x="799" d="M735.232 689.92q32.768-32.768 48.128-65.536t15.36-49.152v-16.384l-258.048-258.048-296.96-294.912-243.712-53.248 51.2 245.76 296.96 294.912 258.048 258.048q55.296 12.288 129.024-61.44zM229.376 34.56l24.576 24.576q-2.048 45.056-53.248 96.256-22.528 22.528-46.080 35.84t-35.84 13.312l-14.336 2.048-22.528-24.576-18.432-81.92q28.672-16.384 47.104-34.816 24.576-24.576 36.864-49.152z" />
<glyph unicode="&#xf827;" glyph-name="menu" horiz-adv-x="878" d="M877.568 96v-72.704q0-15.36-10.24-25.6t-26.624-11.264h-803.84q-15.36 0-25.6 11.264t-11.264 25.6v72.704q0 15.36 11.264 25.6t25.6 11.264h803.84q15.36 0 26.624-11.264t10.24-25.6zM877.568 388.864v-73.728q0-14.336-10.24-25.6t-26.624-10.24h-803.84q-15.36 0-25.6 10.24t-11.264 25.6v73.728q0 14.336 11.264 25.6t25.6 10.24h803.84q15.36 0 26.624-10.24t10.24-25.6zM877.568 680.704v-72.704q0-14.336-10.24-25.6t-26.624-11.264h-803.84q-15.36 0-25.6 11.264t-11.264 25.6v72.704q0 15.36 11.264 26.624t25.6 10.24h803.84q15.36 0 26.624-10.24t10.24-26.624z" />
<glyph unicode="&#xf828;" glyph-name="location" horiz-adv-x="585" d="M439.296 498.432q0 60.416-43.008 103.424t-103.424 43.008-103.424-43.008-43.008-103.424 43.008-103.424 103.424-43.008 103.424 43.008 43.008 103.424zM584.704 498.432q0-62.464-18.432-102.4l-207.872-442.368q-9.216-18.432-27.648-29.696t-37.888-11.264-38.912 11.264-26.624 29.696l-208.896 442.368q-18.432 39.936-18.432 102.4 0 120.832 86.016 206.848t206.848 86.016 206.848-86.016 84.992-206.848z" />
<glyph unicode="&#xf829;" glyph-name="mail" d="M951.296 4.864v438.272q-18.432-20.48-39.936-36.864-152.576-117.76-243.712-193.536-28.672-24.576-47.104-37.888t-49.152-28.672-58.368-13.312h-2.048q-26.624 0-58.368 13.312t-49.152 28.672-47.104 37.888q-90.112 75.776-243.712 193.536-21.504 16.384-39.936 36.864v-438.272q0-7.168 6.144-13.312t12.288-5.12h841.728q7.168 0 12.288 5.12t6.144 13.312zM951.296 604.928v14.336t-1.024 7.168-1.024 7.168-3.072 5.12-5.12 4.096-8.192 2.048h-841.728q-7.168 0-12.288-6.144t-6.144-12.288q0-96.256 84.992-162.816 109.568-86.016 228.352-180.224 4.096-3.072 20.48-17.408t25.6-21.504 25.6-17.408 28.672-16.384 24.576-5.12h2.048q11.264 0 24.576 5.12t28.672 16.384 25.6 17.408 25.6 21.504 20.48 17.408q118.784 94.208 229.376 180.224 30.72 24.576 57.344 66.56t26.624 74.752zM1024 626.432v-621.568q0-37.888-26.624-64.512t-64.512-27.648h-841.728q-36.864 0-64.512 27.648t-26.624 64.512v621.568q0 37.888 26.624 64.512t64.512 26.624h841.728q37.888 0 64.512-26.624t26.624-64.512z" />
<glyph unicode="&#xf82a;" glyph-name="clock" horiz-adv-x="878" d="M512 552.704v-256q0-7.168-5.12-12.288t-13.312-5.12h-182.272q-8.192 0-13.312 5.12t-5.12 12.288v36.864q0 8.192 5.12 13.312t13.312 5.12h128v200.704q0 8.192 5.12 13.312t12.288 5.12h36.864q8.192 0 13.312-5.12t5.12-13.312zM749.568 352q0 84.992-41.984 155.648t-112.64 113.664-155.648 41.984-156.672-41.984-112.64-113.664-41.984-155.648 41.984-155.648 112.64-113.664 156.672-41.984 155.648 41.984 112.64 113.664 41.984 155.648zM877.568 352q0-119.808-58.368-220.16t-159.744-159.744-220.16-59.392-221.184 59.392-158.72 159.744-59.392 220.16 59.392 220.16 158.72 159.744 221.184 59.392 220.16-59.392 159.744-159.744 58.368-220.16z" />
<glyph unicode="&#xf82b;" glyph-name="ok" d="M955.392 540.416q0-22.528-16.384-38.912l-491.52-491.52q-16.384-15.36-38.912-15.36t-38.912 15.36l-284.672 284.672q-15.36 16.384-15.36 38.912t15.36 38.912l77.824 77.824q16.384 16.384 38.912 16.384t38.912-16.384l167.936-168.96 374.784 375.808q16.384 16.384 38.912 16.384t38.912-16.384l77.824-77.824q16.384-15.36 16.384-38.912z" />
<glyph unicode="&#xf82c;" glyph-name="plus-squared-alt" horiz-adv-x="804" d="M658.432 407.296v-36.864q0-8.192-5.12-13.312t-13.312-5.12h-200.704v-200.704q0-8.192-5.12-13.312t-13.312-5.12h-36.864q-8.192 0-13.312 5.12t-5.12 13.312v200.704h-200.704q-8.192 0-13.312 5.12t-5.12 13.312v36.864q0 7.168 5.12 12.288t13.312 5.12h200.704v201.728q0 8.192 5.12 13.312t13.312 5.12h36.864q8.192 0 13.312-5.12t5.12-13.312v-201.728h200.704q8.192 0 13.312-5.12t5.12-12.288zM731.136 151.296v475.136q0 37.888-26.624 64.512t-64.512 26.624h-475.136q-37.888 0-64.512-26.624t-27.648-64.512v-475.136q0-37.888 27.648-64.512t64.512-27.648h475.136q37.888 0 64.512 27.648t26.624 64.512zM804.864 626.432v-475.136q0-68.608-48.128-116.736t-116.736-48.128h-475.136q-68.608 0-116.736 48.128t-48.128 116.736v475.136q0 67.584 48.128 115.712t116.736 49.152h475.136q67.584 0 116.736-49.152t48.128-115.712z" />
<glyph unicode="&#xf82d;" glyph-name="minus-squared-alt" horiz-adv-x="804" d="M658.432 407.296v-36.864q0-8.192-5.12-13.312t-13.312-5.12h-475.136q-8.192 0-13.312 5.12t-5.12 13.312v36.864q0 7.168 5.12 12.288t13.312 5.12h475.136q8.192 0 13.312-5.12t5.12-12.288zM731.136 151.296v475.136q0 37.888-26.624 64.512t-64.512 26.624h-475.136q-37.888 0-64.512-26.624t-27.648-64.512v-475.136q0-37.888 27.648-64.512t64.512-27.648h475.136q37.888 0 64.512 27.648t26.624 64.512zM804.864 626.432v-475.136q0-68.608-48.128-116.736t-116.736-48.128h-475.136q-68.608 0-116.736 48.128t-48.128 116.736v475.136q0 67.584 48.128 115.712t116.736 49.152h475.136q67.584 0 116.736-49.152t48.128-115.712z" />
<glyph unicode="&#xf82e;" glyph-name="plus-squared" horiz-adv-x="878" d="M731.136 315.136v73.728q0 14.336-10.24 25.6t-25.6 10.24h-183.296v183.296q0 15.36-11.264 25.6t-25.6 11.264h-72.704q-15.36 0-25.6-11.264t-11.264-25.6v-183.296h-182.272q-15.36 0-25.6-10.24t-11.264-25.6v-73.728q0-14.336 11.264-25.6t25.6-10.24h182.272v-183.296q0-14.336 11.264-25.6t25.6-11.264h72.704q15.36 0 25.6 11.264t11.264 25.6v183.296h183.296q14.336 0 25.6 10.24t10.24 25.6zM877.568 626.432v-548.864q0-67.584-48.128-115.712t-116.736-49.152h-547.84q-68.608 0-116.736 49.152t-48.128 115.712v548.864q0 67.584 48.128 115.712t116.736 49.152h547.84q68.608 0 116.736-49.152t48.128-115.712z" />
<glyph unicode="&#xf82f;" glyph-name="minus-squared" horiz-adv-x="878" d="M731.136 315.136v73.728q0 14.336-10.24 25.6t-25.6 10.24h-512q-15.36 0-25.6-10.24t-11.264-25.6v-73.728q0-14.336 11.264-25.6t25.6-10.24h512q14.336 0 25.6 10.24t10.24 25.6zM877.568 626.432v-548.864q0-67.584-48.128-115.712t-116.736-49.152h-547.84q-68.608 0-116.736 49.152t-48.128 115.712v548.864q0 67.584 48.128 115.712t116.736 49.152h547.84q68.608 0 116.736-49.152t48.128-115.712z" />
<glyph unicode="&#xf830;" glyph-name="truck" d="M365.568 59.136q0 29.696-21.504 52.224t-51.2 21.504-51.2-21.504-22.528-52.224 22.528-51.2 51.2-21.504 51.2 21.504 21.504 51.2zM146.432 352h219.136v146.432h-90.112q-7.168 0-12.288-5.12l-111.616-111.616q-5.12-5.12-5.12-12.288v-17.408zM877.568 59.136q0 29.696-21.504 52.224t-51.2 21.504-51.2-21.504-22.528-52.224 22.528-51.2 51.2-21.504 51.2 21.504 21.504 51.2zM1024 680.704v-584.704q0-8.192-2.048-15.36t-8.192-10.24-9.216-6.144-13.312-4.096-13.312-1.024-14.336 0-12.288 0q0-60.416-43.008-103.424t-103.424-43.008-103.424 43.008-43.008 103.424h-219.136q0-60.416-43.008-103.424t-103.424-43.008-103.424 43.008-43.008 103.424h-36.864q-1.024 0-12.288 0t-15.36 0-12.288 1.024-13.312 4.096-9.216 6.144-8.192 10.24-2.048 15.36q0 15.36 10.24 25.6t25.6 11.264v182.272q0 5.12 0 20.48t0 21.504 2.048 19.456 3.072 21.504 8.192 17.408 13.312 17.408l112.64 112.64q11.264 11.264 28.672 18.432t33.792 7.168h91.136v109.568q0 15.36 11.264 26.624t25.6 10.24h584.704q15.36 0 25.6-10.24t11.264-26.624z" />
<glyph unicode="&#xf831;" glyph-name="dollar" horiz-adv-x="585" d="M559.104 187.136q0-88.064-57.344-150.528t-147.456-78.848v-99.328q0-8.192-5.12-13.312t-13.312-5.12h-76.8q-7.168 0-13.312 5.12t-5.12 13.312v99.328q-37.888 5.12-72.704 18.432t-58.368 25.6-41.984 26.624-26.624 21.504-10.24 10.24q-9.216 12.288-1.024 23.552l59.392 77.824q3.072 5.12 12.288 6.144t14.336-5.12l1.024-1.024q64.512-56.32 138.24-71.68 21.504-4.096 43.008-4.096 46.080 0 80.896 24.576t35.84 69.632q0 16.384-9.216 30.72t-18.432 23.552-33.792 21.504-37.888 18.432-46.080 18.432q-21.504 9.216-34.816 14.336t-34.816 15.36-35.84 17.408-32.768 20.48-29.696 24.576-25.6 27.648-20.48 32.768-11.264 37.888-5.12 45.056q0 78.848 56.32 138.24t145.408 76.8v102.4q0 7.168 5.12 13.312t13.312 5.12h76.8q8.192 0 13.312-5.12t5.12-13.312v-100.352q32.768-3.072 63.488-13.312t49.152-19.456 36.864-20.48 21.504-17.408 9.216-7.168q9.216-11.264 3.072-22.528l-47.104-82.944q-4.096-9.216-12.288-9.216-8.192-2.048-15.36 4.096-2.048 2.048-9.216 7.168t-21.504 14.336-33.792 18.432-43.008 15.36-48.128 6.144q-54.272 0-89.088-24.576t-33.792-63.488q0-14.336 4.096-27.648t17.408-23.552 22.528-18.432 31.744-18.432 34.816-15.36 39.936-15.36q30.72-11.264 46.080-17.408t44.032-20.48 43.008-24.576 34.816-28.672 30.72-35.84 18.432-44.032 7.168-53.248z" />
<glyph unicode="&#xf832;" glyph-name="lifebuoy" d="M512 864q104.448 0 198.656-40.96t163.84-108.544 108.544-163.84 40.96-198.656-40.96-198.656-108.544-163.84-163.84-108.544-198.656-40.96-198.656 40.96-163.84 108.544-108.544 163.84-40.96 198.656 40.96 198.656 108.544 163.84 163.84 108.544 198.656 40.96zM512 791.296q-108.544 0-205.824-52.224l110.592-110.592q47.104 16.384 95.232 16.384t95.232-16.384l111.616 110.592q-98.304 52.224-206.848 52.224zM124.928 146.176l110.592 110.592q-16.384 47.104-16.384 95.232t16.384 95.232l-110.592 111.616q-52.224-98.304-52.224-206.848t52.224-205.824zM512-87.296q108.544 0 206.848 52.224l-111.616 110.592q-47.104-16.384-95.232-16.384t-95.232 16.384l-110.592-110.592q97.28-52.224 205.824-52.224zM512 132.864q91.136 0 155.648 64.512t63.488 154.624-63.488 155.648-155.648 63.488-154.624-63.488-64.512-155.648 64.512-154.624 154.624-64.512zM788.48 256.768l110.592-110.592q52.224 97.28 52.224 205.824t-52.224 206.848l-110.592-111.616q16.384-47.104 16.384-95.232t-16.384-95.232z" />
<glyph unicode="&#xf833;" glyph-name="facebook" horiz-adv-x="585" d="M547.84 856.832v-150.528h-89.088q-49.152 0-66.56-20.48t-17.408-61.44v-108.544h167.936l-22.528-168.96h-145.408v-434.176h-175.104v434.176h-145.408v168.96h145.408v124.928q0 106.496 59.392 164.864t158.72 58.368q83.968 0 130.048-7.168z" />
<glyph unicode="&#xf834;" glyph-name="twitter" horiz-adv-x="950" d="M925.696 630.528q-37.888-55.296-92.16-95.232 0-8.192 0-23.552 0-74.752-21.504-148.48t-65.536-142.336-105.472-119.808-147.456-83.968-185.344-30.72q-154.624 0-282.624 82.944 19.456-2.048 44.032-2.048 129.024 0 229.376 78.848-60.416 1.024-107.52 36.864t-65.536 91.136q19.456-3.072 34.816-3.072 24.576 0 49.152 6.144-64.512 13.312-106.496 63.488t-41.984 117.76v2.048q38.912-21.504 83.968-23.552-37.888 25.6-60.416 65.536t-22.528 88.064q0 50.176 25.6 93.184 69.632-84.992 167.936-136.192t212.992-56.32q-5.12 21.504-5.12 41.984 0 76.8 54.272 130.048t130.048 54.272q80.896 0 135.168-58.368 62.464 12.288 117.76 45.056-21.504-65.536-81.92-102.4 53.248 6.144 106.496 28.672z" />
<glyph unicode="&#xf835;" glyph-name="linkedin-squared" horiz-adv-x="878" d="M135.168 56.064h132.096v396.288h-132.096v-396.288zM276.48 575.232q-1.024 29.696-21.504 49.152t-52.224 19.456-54.272-19.456-21.504-49.152q0-29.696 20.48-49.152t53.248-19.456v0q33.792 0 54.272 19.456t21.504 49.152zM610.304 56.064h132.096v227.328q0 88.064-41.984 133.12t-109.568 45.056q-77.824 0-119.808-66.56h1.024v57.344h-132.096q2.048-37.888 0-396.288h132.096v222.208q0 21.504 4.096 31.744 8.192 19.456 25.6 33.792t41.984 14.336q66.56 0 66.56-90.112v-211.968zM877.568 626.432v-548.864q0-67.584-48.128-115.712t-116.736-49.152h-547.84q-68.608 0-116.736 49.152t-48.128 115.712v548.864q0 67.584 48.128 115.712t116.736 49.152h547.84q68.608 0 116.736-49.152t48.128-115.712z" />
<glyph unicode="&#xf836;" glyph-name="pinterest" horiz-adv-x="731" d="M0 523.008q0 61.44 21.504 115.712t59.392 95.232 87.040 70.656 105.472 45.056 115.712 14.336q90.112 0 167.936-37.888t125.952-110.592 48.128-163.84q0-55.296-10.24-107.52t-34.816-101.376-57.344-84.992-81.92-59.392-108.544-21.504q-38.912 0-76.8 18.432t-55.296 50.176q-5.12-22.528-15.36-64.512t-14.336-54.272-11.264-40.96-15.36-39.936-17.408-35.84-26.624-45.056-35.84-49.152l-7.168-3.072-5.12 6.144q-9.216 90.112-9.216 107.52 0 52.224 12.288 117.76t37.888 164.864 29.696 115.712q-18.432 36.864-18.432 96.256 0 48.128 29.696 89.088t75.776 41.984q34.816 0 54.272-23.552t19.456-58.368q0-37.888-24.576-108.544t-25.6-107.52q0-35.84 25.6-59.392t62.464-23.552q31.744 0 58.368 14.336t45.056 38.912 31.744 54.272 21.504 62.464 11.264 63.488 4.096 57.344q0 98.304-62.464 153.6t-163.84 55.296q-113.664 0-190.464-73.728t-76.8-187.392q0-25.6 7.168-49.152t15.36-36.864 15.36-26.624 7.168-17.408q0-15.36-8.192-40.96t-21.504-25.6q-1.024 0-9.216 1.024-29.696 9.216-52.224 31.744t-34.816 54.272-18.432 61.44-6.144 61.44z" />
<glyph unicode="&#xf837;" glyph-name="gplus" horiz-adv-x="1316" d="M821.248 342.784q0-119.808-50.176-211.968t-141.312-145.408-210.944-52.224q-84.992 0-162.816 32.768t-134.144 89.088-89.088 134.144-32.768 162.816 32.768 162.816 89.088 134.144 134.144 89.088 162.816 32.768q163.84 0 280.576-109.568l-113.664-109.568q-66.56 64.512-166.912 64.512-70.656 0-130.048-34.816t-94.208-96.256-34.816-133.12 34.816-133.12 94.208-96.256 130.048-34.816q47.104 0 87.040 13.312t65.536 32.768 45.056 44.032 27.648 48.128 12.288 41.984h-237.568v144.384h395.264q7.168-36.864 7.168-69.632zM1316.864 412.416v-120.832h-119.808v-118.784h-119.808v118.784h-119.808v120.832h119.808v118.784h119.808v-118.784h119.808z" />
<glyph unicode="&#xf838;" glyph-name="youtube" horiz-adv-x="878" d="M555.008 153.344v-120.832q0-37.888-22.528-37.888-13.312 0-25.6 12.288v172.032q12.288 12.288 25.6 12.288 22.528 0 22.528-37.888zM748.544 152.32v-25.6h-52.224v25.6q0 38.912 25.6 38.912t26.624-38.912zM195.584 277.248h61.44v53.248h-178.176v-53.248h60.416v-325.632h56.32v325.632zM360.448-48.384h51.2v282.624h-51.2v-216.064q-17.408-23.552-32.768-23.552-10.24 0-11.264 11.264-1.024 2.048-1.024 20.48v207.872h-51.2v-223.232q0-28.672 5.12-41.984 7.168-21.504 32.768-21.504 27.648 0 58.368 34.816v-30.72zM606.208 36.608v112.64q0 41.984-5.12 56.32-10.24 31.744-40.96 31.744-28.672 0-53.248-30.72v123.904h-51.2v-378.88h51.2v27.648q25.6-31.744 53.248-31.744 30.72 0 40.96 31.744 5.12 15.36 5.12 57.344zM798.72 42.752v7.168h-52.224q0-29.696-1.024-34.816-4.096-20.48-22.528-20.48-26.624 0-26.624 38.912v50.176h102.4v58.368q0 45.056-15.36 66.56-22.528 28.672-60.416 28.672-38.912 0-61.44-28.672-15.36-21.504-15.36-66.56v-98.304q0-45.056 16.384-66.56 22.528-29.696 61.44-29.696 40.96 0 61.44 30.72 10.24 15.36 12.288 30.72 1.024 5.12 1.024 33.792zM451.584 563.968v119.808q0 39.936-24.576 39.936t-24.576-39.936v-119.808q0-39.936 24.576-39.936t24.576 39.936zM862.208 134.912q0-134.144-14.336-199.68-8.192-33.792-33.792-57.344t-58.368-25.6q-104.448-12.288-316.416-12.288t-317.44 12.288q-32.768 3.072-58.368 25.6t-32.768 57.344q-15.36 63.488-15.36 199.68 0 134.144 15.36 199.68 7.168 33.792 32.768 57.344t58.368 26.624q105.472 11.264 317.44 11.264t316.416-11.264q33.792-4.096 59.392-26.624t32.768-57.344q14.336-63.488 14.336-199.68zM291.84 864h58.368l-68.608-228.352v-154.624h-57.344v154.624q-8.192 43.008-34.816 121.856-21.504 58.368-37.888 106.496h61.44l39.936-150.528zM503.808 673.536v-99.328q0-47.104-16.384-67.584-21.504-29.696-60.416-29.696-37.888 0-60.416 29.696-15.36 21.504-15.36 67.584v99.328q0 46.080 15.36 67.584 22.528 28.672 60.416 28.672 38.912 0 60.416-28.672 16.384-21.504 16.384-67.584zM695.296 766.72v-285.696h-52.224v31.744q-30.72-35.84-59.392-35.84-25.6 0-33.792 21.504-4.096 13.312-4.096 43.008v225.28h52.224v-209.92q0-19.456 0-20.48 2.048-12.288 12.288-12.288 15.36 0 32.768 24.576v218.112h52.224z" />
<glyph unicode="&#xf839;" glyph-name="th" d="M0-160v256h256v-256h-256zM0 224v256h256v-256h-256zM0 608v256h256v-256h-256zM384-160v256h256v-256h-256zM384 224v256h256v-256h-256zM384 608v256h256v-256h-256zM768-160v256h256v-256h-256zM768 224v256h256v-256h-256zM768 608v256h256v-256h-256z" />
<glyph unicode="&#xf83a;" glyph-name="th-list" d="M0-160v256h256v-256h-256zM0 224v256h256v-256h-256zM0 608v256h256v-256h-256zM400.384-160v256h623.616v-256h-623.616zM400.384 224v256h623.616v-256h-623.616zM400.384 608v256h623.616v-256h-623.616z" />
<glyph unicode="&#xf83b;" glyph-name="chart-bar" horiz-adv-x="819" d="M768 812.8q22.528 0 36.864-15.36t14.336-35.84v-870.4h-204.8v870.4q0 51.2 40.96 51.2h112.64zM460.8 505.6q22.528 0 36.864-15.36t14.336-35.84v-563.2h-204.8v563.2q0 51.2 40.96 51.2h112.64zM153.6 198.4q22.528 0 36.864-15.36t14.336-35.84v-256h-204.8v256q0 51.2 40.96 51.2h112.64z" />
<glyph unicode="&#xf83c;" glyph-name="heart-empty" d="M951.296 523.008q0 47.104-12.288 81.92t-31.744 56.32-47.104 33.792-53.248 18.432-56.32 4.096-63.488-14.336-63.488-36.864-49.152-40.96-34.816-34.816q-10.24-13.312-27.648-13.312t-27.648 13.312q-14.336 15.36-34.816 34.816t-49.152 40.96-63.488 36.864-63.488 14.336-56.32-4.096-53.248-18.432-47.104-33.792-31.744-56.32-12.288-81.92q0-95.232 107.52-202.752l331.776-319.488 331.776 319.488q107.52 107.52 107.52 202.752zM1024 523.008q0-125.952-131.072-257.024l-355.328-343.040q-10.24-10.24-25.6-10.24t-25.6 10.24l-356.352 344.064q-5.12 5.12-15.36 15.36t-31.744 37.888-38.912 55.296-30.72 68.608-13.312 78.848q0 125.952 72.704 196.608t200.704 71.68q34.816 0 71.68-12.288t68.608-33.792 55.296-38.912 43.008-38.912q20.48 20.48 43.008 38.912t55.296 38.912 68.608 33.792 71.68 12.288q128 0 200.704-71.68t72.704-196.608z" />
</font>
</defs>
</svg>
